IBM Plex Arabic-Thin.ufo
<glyph name="braceleft" format="1">
  <advance width="315"/>
  <unicode hex="007B"/>
  <outline>
    <contour>
      <point x="247" y="-138" type="line" name="hr00"/>
      <point x="247" y="-120" type="line"/>
      <point x="142" y="-120" type="line"/>
      <point x="142" y="201" type="line" smooth="yes"/>
      <point x="142" y="263"/>
      <point x="103" y="303"/>
      <point x="43" y="303" type="curve"/>
      <point x="43" y="319" type="line"/>
      <point x="103" y="319"/>
      <point x="142" y="359"/>
      <point x="142" y="421" type="curve" smooth="yes"/>
      <point x="142" y="742" type="line"/>
      <point x="247" y="742" type="line"/>
      <point x="247" y="760" type="line"/>
      <point x="147" y="760" type="line" smooth="yes"/>
      <point x="130" y="760"/>
      <point x="122" y="753"/>
      <point x="122" y="734" type="curve" smooth="yes"/>
      <point x="122" y="421" type="line" smooth="yes"/>
      <point x="122" y="361"/>
      <point x="85" y="335"/>
      <point x="25" y="335" type="curve"/>
      <point x="25" y="287" type="line"/>
      <point x="85" y="287"/>
      <point x="122" y="261"/>
      <point x="122" y="201" type="curve" smooth="yes"/>
      <point x="122" y="-112" type="line" smooth="yes"/>
      <point x="122" y="-131"/>
      <point x="130" y="-138"/>
      <point x="147" y="-138" type="curve" smooth="yes"/>
    </contour>
  </outline>
</glyph>
<glyph name="yen" format="1">
  <advance width="580"/>
  <unicode hex="00A5"/>
  <outline>
    <contour>
      <point x="499" y="168" type="line" name="hr00"/>
      <point x="499" y="187" type="line"/>
      <point x="301" y="187" type="line"/>
      <point x="301" y="325" type="line"/>
      <point x="499" y="325" type="line"/>
      <point x="499" y="344" type="line"/>
      <point x="313" y="344" type="line"/>
      <point x="532" y="698" type="line"/>
      <point x="508" y="698" type="line"/>
      <point x="292" y="348" type="line"/>
      <point x="289" y="348" type="line"/>
      <point x="73" y="698" type="line"/>
      <point x="48" y="698" type="line"/>
      <point x="267" y="344" type="line"/>
      <point x="81" y="344" type="line"/>
      <point x="81" y="325" type="line"/>
      <point x="279" y="325" type="line"/>
      <point x="279" y="187" type="line"/>
      <point x="81" y="187" type="line"/>
      <point x="81" y="168" type="line"/>
      <point x="279" y="168" type="line"/>
      <point x="279" y="0" type="line"/>
      <point x="301" y="0" type="line"/>
      <point x="301" y="168" type="line"/>
    </contour>
  </outline>
</glyph>
<glyph name="oe" format="1">
  <advance width="929"/>
  <unicode hex="0153"/>
  <outline>
    <contour>
      <point x="270" y="7" type="curve" smooth="yes" name="hr00"/>
      <point x="150" y="7"/>
      <point x="83" y="93"/>
      <point x="83" y="229" type="curve" smooth="yes"/>
      <point x="83" y="277" type="line" smooth="yes"/>
      <point x="83" y="413"/>
      <point x="150" y="499"/>
      <point x="270" y="499" type="curve" smooth="yes"/>
      <point x="390" y="499"/>
      <point x="457" y="413"/>
      <point x="457" y="277" type="curve" smooth="yes"/>
      <point x="457" y="229" type="line" smooth="yes"/>
      <point x="457" y="93"/>
      <point x="390" y="7"/>
    </contour>
    <contour>
      <point x="479" y="275" type="line"/>
      <point x="479" y="277" type="line" smooth="yes"/>
      <point x="479" y="413"/>
      <point x="546" y="499"/>
      <point x="664" y="499" type="curve" smooth="yes"/>
      <point x="773" y="499"/>
      <point x="846" y="412"/>
      <point x="846" y="279" type="curve" smooth="yes"/>
      <point x="846" y="275" type="line"/>
    </contour>
    <contour>
      <point x="668" y="-12" type="curve" smooth="yes"/>
      <point x="765" y="-12"/>
      <point x="831" y="41"/>
      <point x="861" y="124" type="curve"/>
      <point x="843" y="131" type="line"/>
      <point x="812" y="49"/>
      <point x="753" y="7"/>
      <point x="668" y="7" type="curve" smooth="yes"/>
      <point x="548" y="7"/>
      <point x="479" y="93"/>
      <point x="479" y="229" type="curve" smooth="yes"/>
      <point x="479" y="256" type="line"/>
      <point x="869" y="256" type="line"/>
      <point x="869" y="266" type="line" smooth="yes"/>
      <point x="869" y="421"/>
      <point x="786" y="518"/>
      <point x="664" y="518" type="curve" smooth="yes"/>
      <point x="565" y="518"/>
      <point x="497" y="463"/>
      <point x="470" y="362" type="curve"/>
      <point x="467" y="362" type="line"/>
      <point x="441" y="464"/>
      <point x="371" y="518"/>
      <point x="270" y="518" type="curve" smooth="yes"/>
      <point x="138" y="518"/>
      <point x="60" y="428"/>
      <point x="60" y="253" type="curve" smooth="yes"/>
      <point x="60" y="78"/>
      <point x="138" y="-12"/>
      <point x="270" y="-12" type="curve" smooth="yes"/>
      <point x="372" y="-12"/>
      <point x="440" y="42"/>
      <point x="466" y="146" type="curve"/>
      <point x="469" y="146" type="line"/>
      <point x="496" y="42"/>
      <point x="566" y="-12"/>
    </contour>
  </outline>
</glyph>
<glyph name="caronslovak" format="1">
  <advance width="600"/>
  <unicode hex="02BC"/>
  <outline>
    <contour>
      <point x="278" y="740" type="line" name="hr00"/>
      <point x="253" y="740" type="line"/>
      <point x="237" y="564" type="line"/>
      <point x="254" y="564" type="line"/>
    </contour>
    <contour>
      <point x="237.0" y="740.0" type="move" name="_topright"/>
    </contour>
  </outline>
</glyph>
<glyph name="circumflexcomb" format="1">
  <advance width="0"/>
  <unicode hex="0302"/>
  <outline>
    <component base="circumflex" xOffset="-300"/>
    <contour>
      <point x="0.0" y="540.0" type="move" name="_top"/>
    </contour>
  </outline>
</glyph>
<glyph name="ringcomb" format="1">
  <advance width="0"/>
  <unicode hex="030A"/>
  <outline>
    <component base="ring" xOffset="-300"/>
    <contour>
      <point x="0.0" y="540.0" type="move" name="_top"/>
    </contour>
  </outline>
</glyph>
<glyph name="caronslovakcomb" format="1">
  <advance width="0"/>
  <unicode hex="0315"/>
  <outline>
    <component base="caronslovak" xOffset="-237"/>
    <contour>
      <point x="0.0" y="740.0" type="move" name="_topright"/>
    </contour>
  </outline>
</glyph>
<glyph name="number-ar" format="1">
  <advance width="1236"/>
  <unicode hex="0600"/>
  <outline>
    <contour>
      <point x="20" y="0" type="line" name="hr00"/>
      <point x="799" y="0" type="line"/>
      <point x="987" y="0"/>
      <point x="1083" y="15"/>
      <point x="1161" y="39" type="curve" smooth="yes"/>
      <point x="1221" y="57" type="line"/>
      <point x="1216" y="75" type="line"/>
      <point x="1155" y="57" type="line" smooth="yes"/>
      <point x="1109" y="44"/>
      <point x="1055" y="32"/>
      <point x="1020" y="32" type="curve" smooth="yes"/>
      <point x="981" y="32"/>
      <point x="967" y="37"/>
      <point x="946" y="55" type="curve" smooth="yes"/>
      <point x="877" y="117" type="line"/>
      <point x="1083" y="361" type="line"/>
      <point x="1067" y="374" type="line"/>
      <point x="868" y="137" type="line" smooth="yes"/>
      <point x="856" y="122"/>
      <point x="857" y="110"/>
      <point x="872" y="97" type="curve" smooth="yes"/>
      <point x="949" y="26" type="line"/>
      <point x="949" y="23" type="line"/>
      <point x="20" y="23" type="line"/>
    </contour>
  </outline>
</glyph>
<glyph name="footnotemarker-ar" format="1">
  <advance width="1150"/>
  <unicode hex="0602"/>
  <outline>
    <contour>
      <point x="222" y="0" type="curve" name="hr00"/>
      <point x="1130" y="0" type="line"/>
      <point x="1130" y="23" type="line"/>
      <point x="400" y="23" type="line"/>
      <point x="400" y="89" type="line" smooth="yes"/>
      <point x="400" y="271"/>
      <point x="336" y="379"/>
      <point x="229" y="379" type="curve" smooth="yes"/>
      <point x="131" y="379"/>
      <point x="60" y="280"/>
      <point x="60" y="160" type="curve" smooth="yes"/>
      <point x="60" y="59"/>
      <point x="117" y="0"/>
    </contour>
    <contour>
      <point x="80" y="160" type="curve" smooth="yes"/>
      <point x="80" y="271"/>
      <point x="144" y="356"/>
      <point x="227" y="356" type="curve" smooth="yes"/>
      <point x="323" y="356"/>
      <point x="380" y="254"/>
      <point x="380" y="109" type="curve" smooth="yes"/>
      <point x="380" y="23" type="line"/>
      <point x="215" y="23" type="line" smooth="yes"/>
      <point x="128" y="23"/>
      <point x="80" y="72"/>
    </contour>
  </outline>
</glyph>
<glyph name="perthousand-ar" format="1">
  <advance width="580"/>
  <unicode hex="0609"/>
  <outline>
    <contour>
      <point x="60" y="0" type="line" name="hr00"/>
      <point x="83" y="0" type="line"/>
      <point x="471" y="618" type="line"/>
      <point x="448" y="618" type="line"/>
    </contour>
    <contour>
      <point x="89" y="591" type="curve" smooth="yes"/>
      <point x="89" y="573"/>
      <point x="98" y="564"/>
      <point x="114" y="564" type="curve" smooth="yes"/>
      <point x="122" y="564" type="line" smooth="yes"/>
      <point x="138" y="564"/>
      <point x="147" y="573"/>
      <point x="147" y="591" type="curve" smooth="yes"/>
      <point x="147" y="609"/>
      <point x="138" y="618"/>
      <point x="122" y="618" type="curve" smooth="yes"/>
      <point x="114" y="618" type="line" smooth="yes"/>
      <point x="98" y="618"/>
      <point x="89" y="609"/>
    </contour>
    <contour>
      <point x="462" y="27" type="curve" smooth="yes"/>
      <point x="462" y="9"/>
      <point x="471" y="0"/>
      <point x="487" y="0" type="curve" smooth="yes"/>
      <point x="495" y="0" type="line" smooth="yes"/>
      <point x="511" y="0"/>
      <point x="520" y="9"/>
      <point x="520" y="27" type="curve" smooth="yes"/>
      <point x="520" y="45"/>
      <point x="511" y="54"/>
      <point x="495" y="54" type="curve" smooth="yes"/>
      <point x="487" y="54" type="line" smooth="yes"/>
      <point x="471" y="54"/>
      <point x="462" y="45"/>
    </contour>
    <contour>
      <point x="354" y="27" type="curve" smooth="yes"/>
      <point x="354" y="9"/>
      <point x="363" y="0"/>
      <point x="379" y="0" type="curve" smooth="yes"/>
      <point x="387" y="0" type="line" smooth="yes"/>
      <point x="403" y="0"/>
      <point x="412" y="9"/>
      <point x="412" y="27" type="curve" smooth="yes"/>
      <point x="412" y="45"/>
      <point x="403" y="54"/>
      <point x="387" y="54" type="curve" smooth="yes"/>
      <point x="379" y="54" type="line" smooth="yes"/>
      <point x="363" y="54"/>
      <point x="354" y="45"/>
    </contour>
  </outline>
</glyph>
<glyph name="comma-ar" format="1">
  <advance width="240"/>
  <unicode hex="060C"/>
  <outline>
    <contour>
      <point x="119" y="-12" type="curve" smooth="yes" name="hr00"/>
      <point x="139" y="-12"/>
      <point x="147" y="-1"/>
      <point x="147" y="14" type="curve" smooth="yes"/>
      <point x="147" y="23" type="line" smooth="yes"/>
      <point x="147" y="35"/>
      <point x="139" y="46"/>
      <point x="115" y="46" type="curve"/>
      <point x="119" y="83"/>
      <point x="138" y="138"/>
      <point x="189" y="188" type="curve"/>
      <point x="170" y="188" type="line"/>
      <point x="127" y="148"/>
      <point x="93" y="81"/>
      <point x="93" y="26" type="curve" smooth="yes"/>
      <point x="93" y="14" type="line" smooth="yes"/>
      <point x="93" y="-1"/>
      <point x="101" y="-12"/>
    </contour>
  </outline>
</glyph>
<glyph name="ainabove-ar" format="1">
  <advance width="0"/>
  <unicode hex="0611"/>
  <outline>
    <contour>
      <point x="20" y="289" type="line" name="hr00"/>
      <point x="37" y="289" type="line"/>
      <point x="43" y="316" type="line" smooth="yes"/>
      <point x="48" y="340"/>
      <point x="50" y="355"/>
      <point x="51" y="370" type="curve"/>
      <point x="123" y="370"/>
      <point x="148" y="375"/>
      <point x="175" y="383" type="curve" smooth="yes"/>
      <point x="205" y="392" type="line"/>
      <point x="200" y="409" type="line"/>
      <point x="177" y="403" type="line" smooth="yes"/>
      <point x="165" y="400"/>
      <point x="151" y="397"/>
      <point x="138" y="397" type="curve" smooth="yes"/>
      <point x="109" y="397"/>
      <point x="91" y="419"/>
      <point x="91" y="443" type="curve" smooth="yes"/>
      <point x="91" y="469"/>
      <point x="107" y="485"/>
      <point x="133" y="485" type="curve" smooth="yes"/>
      <point x="150" y="485"/>
      <point x="162" y="480"/>
      <point x="174" y="466" type="curve"/>
      <point x="187" y="480" type="line"/>
      <point x="176" y="495"/>
      <point x="158" y="506"/>
      <point x="135" y="506" type="curve" smooth="yes"/>
      <point x="102" y="506"/>
      <point x="76" y="481"/>
      <point x="76" y="444" type="curve" smooth="yes"/>
      <point x="76" y="418"/>
      <point x="89" y="399"/>
      <point x="103" y="391" type="curve"/>
      <point x="103" y="390" type="line"/>
      <point x="51" y="390" type="line"/>
      <point x="50" y="402"/>
      <point x="48" y="411"/>
      <point x="43" y="436" type="curve" smooth="yes"/>
      <point x="41" y="445" type="line"/>
      <point x="24" y="442" type="line"/>
      <point x="28" y="423" type="line" smooth="yes"/>
      <point x="33" y="398"/>
      <point x="34" y="390"/>
      <point x="34" y="375" type="curve" smooth="yes"/>
      <point x="34" y="359"/>
      <point x="32" y="344"/>
      <point x="26" y="316" type="curve" smooth="yes"/>
    </contour>
    <contour>
      <point x="114.0" y="291.0" type="move" name="_top"/>
    </contour>
    <contour>
      <point x="114.0" y="506.0" type="move" name="top"/>
    </contour>
  </outline>
</glyph>
<glyph name="rehHahabove-ar" format="1">
  <advance width="0"/>
  <unicode hex="0612"/>
  <outline>
    <contour>
      <point x="12" y="289" type="curve"/>
      <point x="32" y="289" type="line"/>
      <point x="32" y="299" type="line" smooth="yes"/>
      <point x="32" y="346"/>
      <point x="55" y="363"/>
      <point x="99" y="381" type="curve" smooth="yes"/>
      <point x="176" y="412" type="line"/>
      <point x="176" y="440" type="line"/>
      <point x="44" y="458" type="line" smooth="yes"/>
      <point x="27" y="460"/>
      <point x="19" y="451"/>
      <point x="19" y="437" type="curve" smooth="yes" name="hr01"/>
      <point x="19" y="414" type="line"/>
      <point x="35" y="414" type="line"/>
      <point x="35" y="438" type="line"/>
      <point x="163" y="423" type="line"/>
      <point x="163" y="421" type="line"/>
      <point x="93" y="395" type="line" smooth="yes"/>
      <point x="34" y="373"/>
      <point x="12" y="345"/>
    </contour>
    <contour>
      <point x="134" y="289" type="line"/>
      <point x="143" y="289" type="line" smooth="yes"/>
      <point x="201" y="289"/>
      <point x="225" y="330"/>
      <point x="225" y="388" type="curve" smooth="yes"/>
      <point x="225" y="401"/>
      <point x="224" y="411"/>
      <point x="217" y="446" type="curve" smooth="yes"/>
      <point x="215" y="455" type="line"/>
      <point x="198" y="452" type="line"/>
      <point x="202" y="433" type="line" smooth="yes"/>
      <point x="207" y="408"/>
      <point x="208" y="400"/>
      <point x="208" y="385" type="curve" smooth="yes"/>
      <point x="208" y="338"/>
      <point x="189" y="310"/>
      <point x="143" y="310" type="curve" smooth="yes"/>
      <point x="134" y="310" type="line"/>
    </contour>
    <contour>
      <point x="119.0" y="289.0" type="move" name="_top"/>
    </contour>
    <contour>
      <point x="119.0" y="458.0" type="move" name="top"/>
    </contour>
  </outline>
</glyph>
<glyph name="alefLamYehabove-ar" format="1">
  <advance width="0"/>
  <unicode hex="0616"/>
  <outline>
    <contour>
      <point x="36" y="305" type="curve" name="hr00"/>
      <point x="212" y="305" type="line"/>
      <point x="212" y="325" type="line"/>
      <point x="32" y="325" type="line"/>
      <point x="32" y="340" type="line" smooth="yes"/>
      <point x="32" y="358"/>
      <point x="39" y="367"/>
      <point x="59" y="371" type="curve" smooth="yes"/>
      <point x="100" y="380" type="line" smooth="yes"/>
      <point x="136" y="388"/>
      <point x="145" y="398"/>
      <point x="145" y="432" type="curve" smooth="yes"/>
      <point x="145" y="601" type="line"/>
      <point x="128" y="601" type="line"/>
      <point x="128" y="432" type="line" smooth="yes"/>
      <point x="128" y="412"/>
      <point x="122" y="405"/>
      <point x="100" y="400" type="curve" smooth="yes"/>
      <point x="59" y="391" type="line" smooth="yes"/>
      <point x="27" y="384"/>
      <point x="16" y="370"/>
      <point x="16" y="340" type="curve" smooth="yes"/>
      <point x="16" y="326" type="line" smooth="yes"/>
      <point x="16" y="314"/>
      <point x="23" y="305"/>
    </contour>
    <contour>
      <point x="195" y="369" type="line"/>
      <point x="212" y="369" type="line"/>
      <point x="212" y="601" type="line"/>
      <point x="195" y="601" type="line"/>
    </contour>
    <contour>
      <point x="114.0" y="295.0" type="move" name="_top"/>
    </contour>
    <contour>
      <point x="114.0" y="602.0" type="move" name="top"/>
    </contour>
  </outline>
</glyph>
<glyph name="dammasmall-ar" format="1">
  <advance width="0"/>
  <unicode hex="0619"/>
  <outline>
    <contour>
      <point x="8" y="361" type="line" name="hr00"/>
      <point x="118" y="412" type="line" smooth="yes"/>
      <point x="161" y="432"/>
      <point x="182" y="457"/>
      <point x="182" y="490" type="curve" smooth="yes"/>
      <point x="182" y="526"/>
      <point x="156" y="552"/>
      <point x="122" y="552" type="curve" smooth="yes"/>
      <point x="89" y="552"/>
      <point x="63" y="525"/>
      <point x="63" y="488" type="curve" smooth="yes"/>
      <point x="63" y="462"/>
      <point x="78" y="441"/>
      <point x="101" y="428" type="curve"/>
      <point x="101" y="425" type="line"/>
      <point x="0" y="379" type="line"/>
    </contour>
    <contour>
      <point x="81" y="488" type="curve" smooth="yes"/>
      <point x="81" y="513"/>
      <point x="99" y="532"/>
      <point x="122" y="532" type="curve" smooth="yes"/>
      <point x="146" y="532"/>
      <point x="164" y="514"/>
      <point x="164" y="490" type="curve" smooth="yes"/>
      <point x="164" y="466"/>
      <point x="149" y="449"/>
      <point x="121" y="435" type="curve"/>
      <point x="111" y="440" type="line" smooth="yes"/>
      <point x="92" y="450"/>
      <point x="81" y="469"/>
    </contour>
    <contour>
      <point x="91.0" y="289.0" type="move" name="_top"/>
    </contour>
    <contour>
      <point x="91.0" y="552.0" type="move" name="top"/>
    </contour>
  </outline>
</glyph>
<glyph name="question-ar" format="1">
  <advance width="456"/>
  <unicode hex="061F"/>
  <outline>
    <contour>
      <point x="258" y="176" type="line"/>
      <point x="258" y="353" type="line"/>
      <point x="131" y="355"/>
      <point x="54" y="415"/>
      <point x="54" y="531" type="curve" smooth="yes"/>
      <point x="54" y="633"/>
      <point x="116" y="687"/>
      <point x="220" y="687" type="curve" smooth="yes" name="hr01"/>
      <point x="319" y="687"/>
      <point x="374" y="638"/>
      <point x="399" y="554" type="curve"/>
      <point x="419" y="559" type="line"/>
      <point x="392" y="654"/>
      <point x="327" y="710"/>
      <point x="220" y="710" type="curve" smooth="yes"/>
      <point x="105" y="710"/>
      <point x="35" y="638"/>
      <point x="35" y="531" type="curve" smooth="yes"/>
      <point x="35" y="414"/>
      <point x="108" y="341"/>
      <point x="239" y="329" type="curve" name="hr02"/>
      <point x="239" y="176" type="line"/>
    </contour>
    <contour>
      <point x="247" y="-5" type="curve" smooth="yes"/>
      <point x="265" y="-5"/>
      <point x="274" y="4"/>
      <point x="274" y="20" type="curve" smooth="yes" name="hr03"/>
      <point x="274" y="28" type="line" smooth="yes"/>
      <point x="274" y="44"/>
      <point x="265" y="53"/>
      <point x="247" y="53" type="curve" smooth="yes"/>
      <point x="229" y="53"/>
      <point x="220" y="44"/>
      <point x="220" y="28" type="curve" smooth="yes"/>
      <point x="220" y="20" type="line" smooth="yes"/>
      <point x="220" y="4"/>
      <point x="229" y="-5"/>
    </contour>
  </outline>
</glyph>
<glyph name="hamza-ar" format="1">
  <advance width="358"/>
  <unicode hex="0621"/>
  <outline>
    <contour>
      <point x="35" y="0" type="line" name="hr00"/>
      <point x="333" y="0" type="line"/>
      <point x="333" y="23" type="line"/>
      <point x="228" y="23" type="line" smooth="yes"/>
      <point x="144" y="23"/>
      <point x="89" y="82"/>
      <point x="89" y="156" type="curve" smooth="yes"/>
      <point x="89" y="225"/>
      <point x="146" y="266"/>
      <point x="201" y="266" type="curve" smooth="yes"/>
      <point x="238" y="266"/>
      <point x="268" y="252"/>
      <point x="295" y="223" type="curve"/>
      <point x="310" y="242" type="line"/>
      <point x="281" y="274"/>
      <point x="247" y="289"/>
      <point x="201" y="289" type="curve" smooth="yes"/>
      <point x="119" y="289"/>
      <point x="69" y="228"/>
      <point x="69" y="156" type="curve" smooth="yes"/>
      <point x="69" y="108"/>
      <point x="89" y="65"/>
      <point x="135" y="27" type="curve"/>
      <point x="133" y="23" type="line"/>
      <point x="35" y="23" type="line"/>
    </contour>
    <contour>
      <point x="195.0" y="0.0" type="move" name="bottom"/>
    </contour>
    <contour>
      <point x="201.0" y="289.0" type="move" name="top"/>
    </contour>
  </outline>
</glyph>
<glyph name="alefHamzabelow-ar" format="1">
  <advance width="200"/>
  <unicode hex="0625"/>
  <outline>
    <component base="alef-ar"/>
    <component base="hamzabelow-ar" xOffset="-11" yOffset="-629"/>
    <contour>
      <point x="100.0" y="0.0" type="move" name="bottom"/>
    </contour>
    <contour>
      <point x="253.0" y="529.0" type="move" name="high"/>
    </contour>
    <contour>
      <point x="100.0" y="740.0" type="move" name="top"/>
    </contour>
  </outline>
</glyph>
<glyph name="reh-ar" format="1">
  <advance width="256"/>
  <unicode hex="0631"/>
  <outline>
    <contour>
      <point x="-70" y="-240" type="line" name="hr00"/>
      <point x="-46" y="-240" type="line" smooth="yes"/>
      <point x="139" y="-240"/>
      <point x="211" y="-138"/>
      <point x="211" y="31" type="curve" smooth="yes"/>
      <point x="211" y="66"/>
      <point x="207" y="119"/>
      <point x="202" y="154" type="curve" smooth="yes"/>
      <point x="183" y="289" type="line"/>
      <point x="163" y="286" type="line"/>
      <point x="183" y="151" type="line" smooth="yes"/>
      <point x="188" y="117"/>
      <point x="192" y="65"/>
      <point x="192" y="30" type="curve" smooth="yes"/>
      <point x="192" y="-123"/>
      <point x="126" y="-217"/>
      <point x="-46" y="-217" type="curve" smooth="yes"/>
      <point x="-70" y="-217" type="line"/>
    </contour>
    <contour>
      <point x="202.0" y="-118.0" type="move" name="bar"/>
    </contour>
    <contour>
      <point x="14.0" y="-240.0" type="move" name="bottom"/>
    </contour>
    <contour>
      <point x="71.0" y="-226.0" type="move" name="ring"/>
    </contour>
    <contour>
      <point x="153.0" y="286.0" type="move" name="top"/>
    </contour>
  </outline>
</glyph>
<glyph name="dad-ar" format="1">
  <advance width="1233"/>
  <unicode hex="0636"/>
  <outline>
    <component base="sad-ar"/>
    <component base="dotabove-ar" xOffset="896" yOffset="86"/>
    <contour>
      <point x="317.0" y="-240.0" type="move" name="bottom"/>
    </contour>
    <contour>
      <point x="959.0" y="375.0" type="move" name="top"/>
    </contour>
  </outline>
</glyph>
<glyph name="yehVinverted-farsi" format="1">
  <advance width="716"/>
  <unicode hex="063D"/>
  <outline>
    <component base="alefMaksura-ar"/>
    <component base="vinvertedabove-ar" xOffset="6" yOffset="-47"/>
    <contour>
      <point x="357.0" y="-240.0" type="move" name="bottom"/>
    </contour>
    <contour>
      <point x="515.0" y="460.0" type="move" name="high"/>
    </contour>
    <contour>
      <point x="357.0" y="-240.0" type="move" name="ring"/>
    </contour>
    <contour>
      <point x="115.0" y="202.0" type="move" name="tail"/>
    </contour>
    <contour>
      <point x="106.0" y="202.0" type="move" name="top"/>
    </contour>
  </outline>
</glyph>
<glyph name="kashida-ar" format="1">
  <advance width="97"/>
  <unicode hex="0640"/>
  <outline>
    <contour>
      <point x="-10" y="0" type="line" name="hr00"/>
      <point x="87" y="0" type="line"/>
      <point x="97" y="10" type="line"/>
      <point x="97" y="23" type="line"/>
      <point x="0" y="23" type="line"/>
      <point x="-10" y="13" type="line"/>
    </contour>
    <contour>
      <point x="49.0" y="0.0" type="move" name="bottom"/>
    </contour>
    <contour>
      <point x="49.0" y="249.0" type="move" name="top"/>
    </contour>
  </outline>
</glyph>
<glyph name="kaf-ar" format="1">
  <advance width="796"/>
  <unicode hex="0643"/>
  <outline>
    <contour>
      <point x="40" y="0" type="line" name="hr00"/>
      <point x="530" y="0" type="line" smooth="yes"/>
      <point x="671" y="0"/>
      <point x="706" y="32"/>
      <point x="706" y="161" type="curve" smooth="yes"/>
      <point x="706" y="740" type="line"/>
      <point x="686" y="740" type="line"/>
      <point x="686" y="161" type="line" smooth="yes"/>
      <point x="686" y="51"/>
      <point x="655" y="23"/>
      <point x="530" y="23" type="curve" smooth="yes"/>
      <point x="40" y="23" type="line"/>
    </contour>
    <contour>
      <point x="303" y="224" type="line"/>
      <point x="433" y="333" type="line" smooth="yes"/>
      <point x="448" y="346"/>
      <point x="453" y="353"/>
      <point x="453" y="361" type="curve" smooth="yes"/>
      <point x="453" y="375"/>
      <point x="446" y="381"/>
      <point x="430" y="381" type="curve" smooth="yes"/>
      <point x="312" y="381" type="line"/>
      <point x="311" y="384" type="line"/>
      <point x="432" y="512" type="line"/>
      <point x="417" y="526" type="line"/>
      <point x="307" y="410" type="line" smooth="yes"/>
      <point x="295" y="398"/>
      <point x="290" y="389"/>
      <point x="290" y="381" type="curve" smooth="yes"/>
      <point x="290" y="367"/>
      <point x="298" y="361"/>
      <point x="312" y="361" type="curve" smooth="yes"/>
      <point x="431" y="361" type="line"/>
      <point x="432" y="358" type="line"/>
      <point x="290" y="239" type="line"/>
    </contour>
    <contour>
      <point x="371.0" y="-4.0" type="move" name="bottom"/>
    </contour>
    <contour>
      <point x="369.0" y="506.0" type="move" name="top"/>
    </contour>
  </outline>
</glyph>
<glyph name="heh-ar" format="1">
  <advance width="418"/>
  <unicode hex="0647"/>
  <outline>
    <contour>
      <point x="205" y="-12" type="curve" smooth="yes" name="hr00"/>
      <point x="304" y="-12"/>
      <point x="365" y="48"/>
      <point x="365" y="137" type="curve" smooth="yes"/>
      <point x="365" y="215"/>
      <point x="311" y="290"/>
      <point x="243" y="355" type="curve" smooth="yes"/>
      <point x="211" y="386" type="line"/>
      <point x="194" y="386" type="line"/>
      <point x="167" y="355" type="line" smooth="yes"/>
      <point x="103" y="282"/>
      <point x="53" y="216"/>
      <point x="53" y="129" type="curve" smooth="yes"/>
      <point x="53" y="41"/>
      <point x="110" y="-12"/>
    </contour>
    <contour>
      <point x="196" y="11" type="line" smooth="yes"/>
      <point x="120" y="11"/>
      <point x="72" y="58"/>
      <point x="72" y="129" type="curve" smooth="yes"/>
      <point x="72" y="191"/>
      <point x="100" y="256"/>
      <point x="178" y="338" type="curve" smooth="yes"/>
      <point x="200" y="361" type="line"/>
      <point x="203" y="361" type="line"/>
      <point x="233" y="331" type="line" smooth="yes"/>
      <point x="310" y="254"/>
      <point x="345" y="195"/>
      <point x="345" y="137" type="curve" smooth="yes"/>
      <point x="345" y="58"/>
      <point x="294" y="11"/>
      <point x="216" y="11" type="curve" smooth="yes"/>
    </contour>
    <contour>
      <point x="205.0" y="-12.0" type="move" name="bottom"/>
    </contour>
    <contour>
      <point x="203.0" y="386.0" type="move" name="top"/>
    </contour>
  </outline>
</glyph>
<glyph name="alefMaksura-ar" format="1">
  <advance width="716"/>
  <unicode hex="0649"/>
  <outline>
    <contour>
      <point x="357" y="-240" type="curve" smooth="yes" name="hr00"/>
      <point x="551" y="-240"/>
      <point x="666" y="-134"/>
      <point x="666" y="45" type="curve" smooth="yes"/>
      <point x="666" y="66"/>
      <point x="660" y="74"/>
      <point x="642" y="79" type="curve" smooth="yes"/>
      <point x="456" y="128" type="line" smooth="yes"/>
      <point x="377" y="149"/>
      <point x="341" y="184"/>
      <point x="341" y="239" type="curve" smooth="yes"/>
      <point x="341" y="341"/>
      <point x="416" y="437"/>
      <point x="515" y="437" type="curve" smooth="yes"/>
      <point x="571" y="437"/>
      <point x="616" y="402"/>
      <point x="636" y="344" type="curve"/>
      <point x="656" y="354" type="line"/>
      <point x="632" y="421"/>
      <point x="580" y="460"/>
      <point x="515" y="460" type="curve" smooth="yes"/>
      <point x="405" y="460"/>
      <point x="321" y="353"/>
      <point x="321" y="239" type="curve" smooth="yes"/>
      <point x="321" y="171"/>
      <point x="362" y="129"/>
      <point x="451" y="106" type="curve" smooth="yes"/>
      <point x="646" y="55" type="line"/>
      <point x="646" y="45" type="line" smooth="yes"/>
      <point x="646" y="-120"/>
      <point x="542" y="-217"/>
      <point x="365" y="-217" type="curve" smooth="yes"/>
      <point x="349" y="-217" type="line" smooth="yes"/>
      <point x="173" y="-217"/>
      <point x="69" y="-133"/>
      <point x="69" y="10" type="curve" smooth="yes"/>
      <point x="69" y="66"/>
      <point x="85" y="133"/>
      <point x="115" y="202" type="curve"/>
      <point x="97" y="210" type="line"/>
      <point x="68" y="143"/>
      <point x="50" y="72"/>
      <point x="50" y="10" type="curve" smooth="yes"/>
      <point x="50" y="-147"/>
      <point x="164" y="-240"/>
    </contour>
    <contour>
      <point x="357.0" y="-240.0" type="move" name="bottom"/>
    </contour>
    <contour>
      <point x="515.0" y="460.0" type="move" name="high"/>
    </contour>
    <contour>
      <point x="357.0" y="-240.0" type="move" name="ring"/>
    </contour>
    <contour>
      <point x="115.0" y="202.0" type="move" name="tail"/>
    </contour>
    <contour>
      <point x="106.0" y="202.0" type="move" name="top"/>
    </contour>
  </outline>
</glyph>
<glyph name="fathatan-ar" format="1">
  <advance width="0"/>
  <unicode hex="064B"/>
  <outline>
    <contour>
      <point x="205" y="473" type="line" name="hr00"/>
      <point x="0" y="379" type="line"/>
      <point x="8" y="361" type="line"/>
      <point x="213" y="455" type="line"/>
    </contour>
    <contour>
      <point x="205" y="591" type="line"/>
      <point x="0" y="497" type="line"/>
      <point x="8" y="479" type="line"/>
      <point x="213" y="573" type="line"/>
    </contour>
    <contour>
      <point x="107.0" y="289.0" type="move" name="_top"/>
    </contour>
    <contour>
      <point x="107.0" y="531.0" type="move" name="top"/>
    </contour>
  </outline>
</glyph>
<glyph name="kasra-ar" format="1">
  <advance width="0"/>
  <unicode hex="0650"/>
  <outline>
    <contour>
      <point x="205" y="473" type="line" name="hr00"/>
      <point x="0" y="379" type="line"/>
      <point x="8" y="361" type="line"/>
      <point x="213" y="455" type="line"/>
    </contour>
    <contour>
      <point x="97.0" y="543.0" type="move" name="_bottom"/>
    </contour>
    <contour>
      <point x="97.0" y="427.0" type="move" name="bottom"/>
    </contour>
  </outline>
</glyph>
<glyph name="dammainverted-ar" format="1">
  <advance width="0"/>
  <unicode hex="0657"/>
  <outline>
    <contour>
      <point x="218" y="587" type="line" name="hr00"/>
      <point x="86" y="526" type="line" smooth="yes"/>
      <point x="36" y="503"/>
      <point x="13" y="475"/>
      <point x="13" y="437" type="curve" smooth="yes"/>
      <point x="13" y="396"/>
      <point x="43" y="366"/>
      <point x="82" y="366" type="curve" smooth="yes"/>
      <point x="121" y="366"/>
      <point x="151" y="397"/>
      <point x="151" y="440" type="curve" smooth="yes"/>
      <point x="151" y="470"/>
      <point x="133" y="495"/>
      <point x="103" y="510" type="curve"/>
      <point x="103" y="513" type="line"/>
      <point x="226" y="569" type="line"/>
    </contour>
    <contour>
      <point x="133" y="440" type="curve" smooth="yes"/>
      <point x="133" y="409"/>
      <point x="111" y="386"/>
      <point x="82" y="386" type="curve" smooth="yes"/>
      <point x="53" y="386"/>
      <point x="31" y="408"/>
      <point x="31" y="437" type="curve" smooth="yes"/>
      <point x="31" y="466"/>
      <point x="48" y="486"/>
      <point x="83" y="503" type="curve"/>
      <point x="93" y="498" type="line" smooth="yes"/>
      <point x="118" y="485"/>
      <point x="133" y="463"/>
    </contour>
    <contour>
      <point x="120.0" y="289.0" type="move" name="_top"/>
    </contour>
    <contour>
      <point x="120.0" y="587.0" type="move" name="top"/>
    </contour>
  </outline>
</glyph>
<glyph name="noonghunnaabove-ar" format="1">
  <advance width="0"/>
  <unicode hex="0658"/>
  <outline>
    <contour>
      <point x="105" y="369" type="curve" smooth="yes" name="hr00"/>
      <point x="173" y="369"/>
      <point x="203" y="393"/>
      <point x="203" y="446" type="curve" smooth="yes"/>
      <point x="203" y="468"/>
      <point x="201" y="486"/>
      <point x="196" y="514" type="curve" smooth="yes"/>
      <point x="191" y="542" type="line"/>
      <point x="174" y="539" type="line"/>
      <point x="179" y="510" type="line" smooth="yes"/>
      <point x="184" y="482"/>
      <point x="186" y="468"/>
      <point x="186" y="446" type="curve" smooth="yes"/>
      <point x="186" y="407"/>
      <point x="163" y="389"/>
      <point x="113" y="389" type="curve" smooth="yes"/>
      <point x="96" y="389" type="line" smooth="yes"/>
      <point x="49" y="389"/>
      <point x="28" y="411"/>
      <point x="28" y="446" type="curve" smooth="yes"/>
      <point x="28" y="472"/>
      <point x="34" y="492"/>
      <point x="42" y="510" type="curve"/>
      <point x="26" y="516" type="line"/>
      <point x="15" y="491"/>
      <point x="10" y="466"/>
      <point x="10" y="446" type="curve" smooth="yes"/>
      <point x="10" y="396"/>
      <point x="40" y="369"/>
    </contour>
    <contour>
      <point x="107.0" y="289.0" type="move" name="_top"/>
    </contour>
    <contour>
      <point x="107.0" y="542.0" type="move" name="top"/>
    </contour>
  </outline>
</glyph>
<glyph name="fathaHorizont-ar" format="1">
  <advance width="0"/>
  <unicode hex="0659"/>
  <outline>
    <contour>
      <point x="20" y="369" type="line" name="hr00"/>
      <point x="201" y="369" type="line"/>
      <point x="201" y="389" type="line"/>
      <point x="20" y="389" type="line"/>
    </contour>
    <contour>
      <point x="111.0" y="289.0" type="move" name="_top"/>
    </contour>
    <contour>
      <point x="111.0" y="389.0" type="move" name="top"/>
    </contour>
  </outline>
</glyph>
<glyph name="dotvowelbelow-ar" format="1">
  <advance width="0"/>
  <unicode hex="065C"/>
  <outline>
    <component base="comp.dot"/>
    <contour>
      <point x="63.0" y="617.0" type="move" name="_bottom"/>
    </contour>
    <contour>
      <point x="63.0" y="416.0" type="move" name="bottom"/>
    </contour>
  </outline>
</glyph>
<glyph name="fathatwodots-ar" format="1">
  <advance width="0"/>
  <unicode hex="065E"/>
  <outline>
    <contour>
      <point x="43" y="331" type="line" name="hr00"/>
      <point x="204" y="489" type="line"/>
      <point x="190" y="503" type="line"/>
      <point x="29" y="345" type="line"/>
    </contour>
    <contour>
      <point x="60" y="449" type="curve" smooth="yes"/>
      <point x="64" y="449" type="line" smooth="yes"/>
      <point x="76" y="449"/>
      <point x="85" y="456"/>
      <point x="85" y="471" type="curve" smooth="yes"/>
      <point x="85" y="486"/>
      <point x="76" y="493"/>
      <point x="64" y="493" type="curve" smooth="yes"/>
      <point x="60" y="493" type="line" smooth="yes"/>
      <point x="48" y="493"/>
      <point x="39" y="486"/>
      <point x="39" y="471" type="curve" smooth="yes"/>
      <point x="39" y="456"/>
      <point x="48" y="449"/>
    </contour>
    <contour>
      <point x="169" y="341" type="curve" smooth="yes"/>
      <point x="173" y="341" type="line" smooth="yes"/>
      <point x="185" y="341"/>
      <point x="194" y="348"/>
      <point x="194" y="363" type="curve" smooth="yes"/>
      <point x="194" y="378"/>
      <point x="185" y="385"/>
      <point x="173" y="385" type="curve" smooth="yes"/>
      <point x="169" y="385" type="line" smooth="yes"/>
      <point x="157" y="385"/>
      <point x="148" y="378"/>
      <point x="148" y="363" type="curve" smooth="yes"/>
      <point x="148" y="348"/>
      <point x="157" y="341"/>
    </contour>
    <contour>
      <point x="113.0" y="289.0" type="move" name="_top"/>
    </contour>
    <contour>
      <point x="113.0" y="407.0" type="move" name="top"/>
    </contour>
  </outline>
</glyph>
<glyph name="one-ar" format="1">
  <advance width="239"/>
  <unicode hex="0661"/>
  <outline>
    <contour>
      <point x="110" y="596" type="line" name="hr00"/>
      <point x="90" y="596" type="line"/>
      <point x="129" y="0" type="line"/>
      <point x="149" y="0" type="line"/>
    </contour>
  </outline>
</glyph>
<glyph name="four-ar" format="1">
  <advance width="443"/>
  <unicode hex="0664"/>
  <outline>
    <contour>
      <point x="246" y="-12" type="curve" smooth="yes" name="hr00"/>
      <point x="309" y="-12"/>
      <point x="371" y="5"/>
      <point x="423" y="34" type="curve"/>
      <point x="413" y="51" type="line"/>
      <point x="364" y="24"/>
      <point x="309" y="8"/>
      <point x="246" y="8" type="curve" smooth="yes"/>
      <point x="132" y="8"/>
      <point x="64" y="62"/>
      <point x="64" y="153" type="curve" smooth="yes"/>
      <point x="64" y="234"/>
      <point x="131" y="286"/>
      <point x="243" y="286" type="curve" smooth="yes"/>
      <point x="342" y="286" type="line"/>
      <point x="342" y="304" type="line"/>
      <point x="243" y="304" type="line" smooth="yes"/>
      <point x="153" y="304"/>
      <point x="98" y="352"/>
      <point x="98" y="424" type="curve" smooth="yes"/>
      <point x="98" y="494"/>
      <point x="153" y="532"/>
      <point x="231" y="557" type="curve" smooth="yes"/>
      <point x="343" y="593" type="line"/>
      <point x="338" y="612" type="line"/>
      <point x="225" y="576" type="line" smooth="yes"/>
      <point x="125" y="544"/>
      <point x="79" y="495"/>
      <point x="79" y="423" type="curve" smooth="yes"/>
      <point x="79" y="360"/>
      <point x="115" y="314"/>
      <point x="179" y="296" type="curve"/>
      <point x="94" y="280"/>
      <point x="45" y="228"/>
      <point x="45" y="153" type="curve" smooth="yes"/>
      <point x="45" y="50"/>
      <point x="121" y="-12"/>
    </contour>
  </outline>
</glyph>
<glyph name="nine-ar" format="1">
  <advance width="495"/>
  <unicode hex="0669"/>
  <outline>
    <contour>
      <point x="385" y="0" type="line" name="hr00"/>
      <point x="405" y="0" type="line"/>
      <point x="381" y="360" type="line" smooth="yes"/>
      <point x="371" y="516"/>
      <point x="309" y="608"/>
      <point x="214" y="608" type="curve" smooth="yes"/>
      <point x="116" y="608"/>
      <point x="45" y="517"/>
      <point x="45" y="405" type="curve" smooth="yes"/>
      <point x="45" y="302"/>
      <point x="102" y="242"/>
      <point x="207" y="242" type="curve" smooth="yes"/>
      <point x="268" y="242"/>
      <point x="326" y="266"/>
      <point x="362" y="307" type="curve"/>
      <point x="365" y="307" type="line"/>
    </contour>
    <contour>
      <point x="214" y="265" type="curve"/>
      <point x="200" y="265" type="line" smooth="yes"/>
      <point x="113" y="265"/>
      <point x="65" y="315"/>
      <point x="65" y="405" type="curve" smooth="yes"/>
      <point x="65" y="507"/>
      <point x="129" y="585"/>
      <point x="212" y="585" type="curve" smooth="yes"/>
      <point x="296" y="585"/>
      <point x="351" y="498"/>
      <point x="362" y="352" type="curve" smooth="yes"/>
      <point x="364" y="326" type="line"/>
      <point x="319" y="285"/>
      <point x="270" y="265"/>
    </contour>
  </outline>
</glyph>
<glyph name="percent-ar" format="1">
  <advance width="531"/>
  <unicode hex="066A"/>
  <outline>
    <contour>
      <point x="60" y="0" type="line" name="hr00"/>
      <point x="83" y="0" type="line"/>
      <point x="471" y="618" type="line"/>
      <point x="448" y="618" type="line"/>
    </contour>
    <contour>
      <point x="393" y="27" type="curve" smooth="yes"/>
      <point x="393" y="9"/>
      <point x="402" y="0"/>
      <point x="418" y="0" type="curve" smooth="yes"/>
      <point x="426" y="0" type="line" smooth="yes"/>
      <point x="442" y="0"/>
      <point x="451" y="9"/>
      <point x="451" y="27" type="curve" smooth="yes"/>
      <point x="451" y="45"/>
      <point x="442" y="54"/>
      <point x="426" y="54" type="curve" smooth="yes"/>
      <point x="418" y="54" type="line" smooth="yes"/>
      <point x="402" y="54"/>
      <point x="393" y="45"/>
    </contour>
    <contour>
      <point x="89" y="591" type="curve" smooth="yes"/>
      <point x="89" y="573"/>
      <point x="98" y="564"/>
      <point x="114" y="564" type="curve" smooth="yes"/>
      <point x="122" y="564" type="line" smooth="yes"/>
      <point x="138" y="564"/>
      <point x="147" y="573"/>
      <point x="147" y="591" type="curve" smooth="yes"/>
      <point x="147" y="609"/>
      <point x="138" y="618"/>
      <point x="122" y="618" type="curve" smooth="yes"/>
      <point x="114" y="618" type="line" smooth="yes"/>
      <point x="98" y="618"/>
      <point x="89" y="609"/>
    </contour>
  </outline>
</glyph>
<glyph name="behDotless-ar" format="1">
  <advance width="826"/>
  <unicode hex="066E"/>
  <outline>
    <contour>
      <point x="415" y="-12" type="curve" smooth="yes" name="hr00"/>
      <point x="687" y="-12"/>
      <point x="781" y="34"/>
      <point x="781" y="166" type="curve" smooth="yes"/>
      <point x="781" y="196"/>
      <point x="780" y="221"/>
      <point x="769" y="296" type="curve" smooth="yes"/>
      <point x="758" y="372" type="line"/>
      <point x="738" y="369" type="line"/>
      <point x="749" y="293" type="line" smooth="yes"/>
      <point x="761" y="211"/>
      <point x="762" y="186"/>
      <point x="762" y="164" type="curve" smooth="yes"/>
      <point x="762" y="50"/>
      <point x="678" y="11"/>
      <point x="435" y="11" type="curve" smooth="yes"/>
      <point x="395" y="11" type="line" smooth="yes"/>
      <point x="153" y="11"/>
      <point x="69" y="58"/>
      <point x="69" y="194" type="curve" smooth="yes"/>
      <point x="69" y="247"/>
      <point x="82" y="299"/>
      <point x="111" y="361" type="curve"/>
      <point x="93" y="369" type="line"/>
      <point x="64" y="306"/>
      <point x="50" y="251"/>
      <point x="50" y="194" type="curve" smooth="yes"/>
      <point x="50" y="41"/>
      <point x="144" y="-12"/>
    </contour>
    <contour>
      <point x="415.0" y="0.0" type="move" name="bottom"/>
    </contour>
    <contour>
      <point x="416.0" y="-12.0" type="move" name="ring"/>
    </contour>
    <contour>
      <point x="416.0" y="249.0" type="move" name="top"/>
    </contour>
  </outline>
</glyph>
<glyph name="alefabove-ar" format="1">
  <advance width="0"/>
  <unicode hex="0670"/>
  <outline>
    <contour>
      <point x="21" y="369" type="line" name="hr00"/>
      <point x="39" y="369" type="line"/>
      <point x="39" y="530" type="line"/>
      <point x="21" y="530" type="line"/>
    </contour>
    <contour>
      <point x="30.0" y="289.0" type="move" name="_top"/>
    </contour>
    <contour>
      <point x="30.0" y="530.0" type="move" name="top"/>
    </contour>
  </outline>
</glyph>
<glyph name="highhamzaAlef-ar" format="1">
  <advance width="200"/>
  <unicode hex="0675"/>
  <outline>
    <component base="alef-ar"/>
    <component base="hamzahigh-ar" xOffset="142" yOffset="240"/>
    <contour>
      <point x="100.0" y="0.0" type="move" name="bottom"/>
    </contour>
    <contour>
      <point x="253.0" y="529.0" type="move" name="high"/>
    </contour>
    <contour>
      <point x="100.0" y="740.0" type="move" name="top"/>
    </contour>
  </outline>
</glyph>
<glyph name="nyeh-ar" format="1">
  <advance width="586"/>
  <unicode hex="0683"/>
  <outline>
    <component base="hah-ar"/>
    <component base="twodotshorizontalcenter-ar" xOffset="198" yOffset="-427"/>
    <contour>
      <point x="337.0" y="-304.0" type="move" name="bottom"/>
    </contour>
    <contour>
      <point x="324.0" y="11.0" type="move" name="center"/>
    </contour>
    <contour>
      <point x="305.0" y="404.0" type="move" name="top"/>
    </contour>
  </outline>
</glyph>
<glyph name="dyeh-ar" format="1">
  <advance width="586"/>
  <unicode hex="0684"/>
  <outline>
    <component base="hah-ar"/>
    <component base="twodotsverticalcenter-ar" xOffset="135" yOffset="-489"/>
    <contour>
      <point x="337.0" y="-304.0" type="move" name="bottom"/>
    </contour>
    <contour>
      <point x="324.0" y="11.0" type="move" name="center"/>
    </contour>
    <contour>
      <point x="305.0" y="404.0" type="move" name="top"/>
    </contour>
  </outline>
</glyph>
<glyph name="hahThreedotsabove-ar" format="1">
  <advance width="586"/>
  <unicode hex="0685"/>
  <outline>
    <component base="hah-ar"/>
    <component base="threedotsupabove-ar" xOffset="179" yOffset="115"/>
    <contour>
      <point x="337.0" y="-304.0" type="move" name="bottom"/>
    </contour>
    <contour>
      <point x="324.0" y="11.0" type="move" name="center"/>
    </contour>
    <contour>
      <point x="305.0" y="404.0" type="move" name="top"/>
    </contour>
  </outline>
</glyph>
<glyph name="dalRing-ar" format="1">
  <advance width="464"/>
  <unicode hex="0689"/>
  <outline>
    <contour>
      <point x="69" y="0" type="curve" name="hr00"/>
      <point x="185" y="0" type="line"/>
      <point x="168" y="-15"/>
      <point x="157" y="-39"/>
      <point x="157" y="-66" type="curve" smooth="yes"/>
      <point x="157" y="-115"/>
      <point x="193" y="-152"/>
      <point x="240" y="-152" type="curve" smooth="yes"/>
      <point x="287" y="-152"/>
      <point x="322" y="-115"/>
      <point x="322" y="-66" type="curve" smooth="yes"/>
      <point x="322" y="-38"/>
      <point x="311" y="-14"/>
      <point x="293" y="1" type="curve"/>
      <point x="373" y="7"/>
      <point x="419" y="54"/>
      <point x="419" y="133" type="curve" smooth="yes"/>
      <point x="419" y="179"/>
      <point x="399" y="231"/>
      <point x="351" y="287" type="curve" smooth="yes"/>
      <point x="187" y="479" type="line"/>
      <point x="170" y="465" type="line"/>
      <point x="334" y="273" type="line" smooth="yes"/>
      <point x="379" y="220"/>
      <point x="399" y="175"/>
      <point x="399" y="133" type="curve" smooth="yes"/>
      <point x="399" y="64"/>
      <point x="353" y="23"/>
      <point x="275" y="23" type="curve" smooth="yes"/>
      <point x="59" y="23" type="line"/>
      <point x="59" y="106" type="line"/>
      <point x="40" y="106" type="line"/>
      <point x="40" y="29" type="line" smooth="yes"/>
      <point x="40" y="9"/>
      <point x="49" y="0"/>
    </contour>
    <contour>
      <point x="240" y="-132" type="curve" smooth="yes"/>
      <point x="203" y="-132"/>
      <point x="175" y="-104"/>
      <point x="175" y="-66" type="curve" smooth="yes"/>
      <point x="175" y="-28"/>
      <point x="203" y="0"/>
      <point x="240" y="0" type="curve" smooth="yes"/>
      <point x="277" y="0"/>
      <point x="304" y="-28"/>
      <point x="304" y="-66" type="curve" smooth="yes"/>
      <point x="304" y="-104"/>
      <point x="277" y="-132"/>
    </contour>
  </outline>
</glyph>
<glyph name="dalDotbelowTah-ar" format="1">
  <advance width="464"/>
  <unicode hex="068B"/>
  <outline>
    <component base="dal-ar"/>
    <component base="dotbelow-ar" xOffset="167" yOffset="-617"/>
    <component base="tahabove-ar" xOffset="81" yOffset="190"/>
    <contour>
      <point x="230.0" y="0.0" type="move" name="bottom"/>
    </contour>
    <contour>
      <point x="240.0" y="0.0" type="move" name="ring"/>
    </contour>
    <contour>
      <point x="199.0" y="479.0" type="move" name="top"/>
    </contour>
  </outline>
</glyph>
<glyph name="dul-ar" format="1">
  <advance width="464"/>
  <unicode hex="068E"/>
  <outline>
    <component base="dal-ar"/>
    <component base="threedotsupabove-ar" xOffset="73" yOffset="190"/>
    <contour>
      <point x="230.0" y="0.0" type="move" name="bottom"/>
    </contour>
    <contour>
      <point x="240.0" y="0.0" type="move" name="ring"/>
    </contour>
    <contour>
      <point x="199.0" y="479.0" type="move" name="top"/>
    </contour>
  </outline>
</glyph>
<glyph name="rehv-ar" format="1">
  <advance width="256"/>
  <unicode hex="0692"/>
  <outline>
    <component base="reh-ar"/>
    <component base="vabove-ar" xOffset="53" yOffset="-3"/>
    <contour>
      <point x="202.0" y="-118.0" type="move" name="bar"/>
    </contour>
    <contour>
      <point x="14.0" y="-240.0" type="move" name="bottom"/>
    </contour>
    <contour>
      <point x="71.0" y="-226.0" type="move" name="ring"/>
    </contour>
    <contour>
      <point x="153.0" y="286.0" type="move" name="top"/>
    </contour>
  </outline>
</glyph>
<glyph name="jeh-ar" format="1">
  <advance width="256"/>
  <unicode hex="0698"/>
  <outline>
    <component base="reh-ar"/>
    <component base="threedotsupabove-ar" xOffset="27" yOffset="-3"/>
    <contour>
      <point x="202.0" y="-118.0" type="move" name="bar"/>
    </contour>
    <contour>
      <point x="14.0" y="-240.0" type="move" name="bottom"/>
    </contour>
    <contour>
      <point x="71.0" y="-226.0" type="move" name="ring"/>
    </contour>
    <contour>
      <point x="153.0" y="286.0" type="move" name="top"/>
    </contour>
  </outline>
</glyph>
<glyph name="sadTwodotsbelow-ar" format="1">
  <advance width="1233"/>
  <unicode hex="069D"/>
  <outline>
    <component base="sad-ar"/>
    <component base="twodotshorizontalbelow-ar" xOffset="191" yOffset="-857"/>
    <contour>
      <point x="317.0" y="-240.0" type="move" name="bottom"/>
    </contour>
    <contour>
      <point x="959.0" y="375.0" type="move" name="top"/>
    </contour>
  </outline>
</glyph>
<glyph name="fehThreedotsbelow-ar" format="1">
  <advance width="921"/>
  <unicode hex="06A5"/>
  <outline>
    <component base="fehDotless-ar"/>
    <component base="threedotsdownbelow-ar" xOffset="334" yOffset="-749"/>
    <contour>
      <point x="460.0" y="-12.0" type="move" name="bottom"/>
    </contour>
    <contour>
      <point x="700.0" y="542.0" type="move" name="top"/>
    </contour>
  </outline>
</glyph>
<glyph name="keheh-ar" format="1">
  <advance width="843"/>
  <unicode hex="06A9"/>
  <outline>
    <contour>
      <point x="420" y="-12" type="curve" smooth="yes" name="hr00"/>
      <point x="659" y="-12"/>
      <point x="770" y="48"/>
      <point x="770" y="146" type="curve" smooth="yes"/>
      <point x="770" y="192"/>
      <point x="746" y="236"/>
      <point x="674" y="317" type="curve" smooth="yes"/>
      <point x="546" y="461" type="line"/>
      <point x="546" y="464" type="line"/>
      <point x="953" y="723" type="line"/>
      <point x="953" y="748" type="line"/>
      <point x="530" y="478" type="line"/>
      <point x="530" y="446" type="line"/>
      <point x="658" y="302" type="line" smooth="yes"/>
      <point x="727" y="224"/>
      <point x="751" y="184"/>
      <point x="751" y="146" type="curve" smooth="yes"/>
      <point x="751" y="62"/>
      <point x="654" y="11"/>
      <point x="440" y="11" type="curve" smooth="yes"/>
      <point x="400" y="11" type="line" smooth="yes"/>
      <point x="158" y="11"/>
      <point x="74" y="58"/>
      <point x="74" y="194" type="curve" smooth="yes"/>
      <point x="74" y="247"/>
      <point x="87" y="299"/>
      <point x="116" y="361" type="curve"/>
      <point x="98" y="369" type="line"/>
      <point x="69" y="306"/>
      <point x="55" y="251"/>
      <point x="55" y="194" type="curve" smooth="yes"/>
      <point x="55" y="41"/>
      <point x="149" y="-12"/>
    </contour>
    <contour>
      <point x="420.0" y="0.0" type="move" name="bottom"/>
    </contour>
    <contour>
      <point x="530.0" y="552.0" type="move" name="kafbar"/>
    </contour>
    <contour>
      <point x="786.0" y="603.0" type="move" name="ring"/>
    </contour>
    <contour>
      <point x="632.0" y="626.0" type="move" name="top"/>
    </contour>
  </outline>
</glyph>
<glyph name="kafswash-ar" format="1">
  <advance width="946"/>
  <unicode hex="06AA"/>
  <outline>
    <contour>
      <point x="40" y="0" type="line" name="hr00"/>
      <point x="867" y="0" type="line"/>
      <point x="886" y="23" type="line"/>
      <point x="886" y="117" type="line" smooth="yes"/>
      <point x="886" y="286"/>
      <point x="826" y="344"/>
      <point x="671" y="344" type="curve" smooth="yes"/>
      <point x="126" y="344" type="line"/>
      <point x="126" y="347" type="line"/>
      <point x="533" y="720" type="line"/>
      <point x="533" y="748" type="line"/>
      <point x="110" y="360" type="line"/>
      <point x="110" y="321" type="line"/>
      <point x="671" y="321" type="line" smooth="yes"/>
      <point x="812" y="321"/>
      <point x="867" y="268"/>
      <point x="867" y="116" type="curve" smooth="yes"/>
      <point x="867" y="23" type="line"/>
      <point x="40" y="23" type="line"/>
    </contour>
  </outline>
</glyph>
<glyph name="ng-ar" format="1">
  <advance width="796"/>
  <unicode hex="06AD"/>
  <outline>
    <component base="kaf-ar"/>
    <component base="threedotsupabove-ar" xOffset="243" yOffset="217"/>
    <contour>
      <point x="371.0" y="-4.0" type="move" name="bottom"/>
    </contour>
    <contour>
      <point x="369.0" y="506.0" type="move" name="top"/>
    </contour>
  </outline>
</glyph>
<glyph name="gafRing-ar" format="1">
  <advance width="843"/>
  <unicode hex="06B0"/>
  <outline>
    <component base="kafRing-ar"/>
    <component base="comp.kafbar-ar" xOffset="512" yOffset="17"/>
    <contour>
      <point x="530.0" y="552.0" type="move" name="_kafbar"/>
    </contour>
    <contour>
      <point x="532.0" y="715.0" type="move" name="top"/>
    </contour>
  </outline>
</glyph>
<glyph name="lamVabove-ar" format="1">
  <advance width="653"/>
  <unicode hex="06B5"/>
  <outline>
    <component base="lam-ar"/>
    <component base="vabove-ar" xOffset="172" yOffset="217"/>
    <contour>
      <point x="553.0" y="424.0" type="move" name="bar"/>
    </contour>
    <contour>
      <point x="297.0" y="-240.0" type="move" name="bottom"/>
    </contour>
    <contour>
      <point x="272.0" y="506.0" type="move" name="top"/>
    </contour>
  </outline>
</glyph>
<glyph name="noonDotbelow-ar" format="1">
  <advance width="653"/>
  <unicode hex="06B9"/>
  <outline>
    <component base="noonghunna-ar"/>
    <component base="dotabove-ar" xOffset="274" yOffset="-40"/>
    <component base="dotbelow-ar" xOffset="254" yOffset="-777"/>
    <contour>
      <point x="317.0" y="-160.0" type="move" name="bottom"/>
    </contour>
    <contour>
      <point x="337.0" y="249.0" type="move" name="top"/>
    </contour>
  </outline>
</glyph>
<glyph name="hehDoachashmee-ar" format="1">
  <advance width="637"/>
  <unicode hex="06BE"/>
  <outline>
    <contour>
      <point x="57" y="23" type="curve" name="hr00"/>
      <point x="20" y="23" type="line"/>
      <point x="20" y="0" type="line"/>
      <point x="57" y="0" type="line" smooth="yes"/>
      <point x="144" y="0"/>
      <point x="213" y="19"/>
      <point x="270" y="47" type="curve"/>
      <point x="326" y="19"/>
      <point x="401" y="0"/>
      <point x="484" y="0" type="curve" smooth="yes"/>
      <point x="558" y="0" type="line"/>
      <point x="577" y="23" type="line"/>
      <point x="577" y="97" type="line" smooth="yes"/>
      <point x="577" y="228"/>
      <point x="530" y="304"/>
      <point x="396" y="390" type="curve" smooth="yes"/>
      <point x="263" y="474" type="line"/>
      <point x="251" y="454" type="line"/>
      <point x="279" y="439" type="line"/>
      <point x="270" y="439" type="line" smooth="yes"/>
      <point x="181" y="439"/>
      <point x="113" y="362"/>
      <point x="113" y="259" type="curve" smooth="yes"/>
      <point x="113" y="177"/>
      <point x="162" y="106"/>
      <point x="247" y="61" type="curve"/>
      <point x="247" y="58" type="line"/>
      <point x="190" y="35"/>
      <point x="126" y="23"/>
    </contour>
    <contour>
      <point x="270" y="70" type="curve"/>
      <point x="185" y="113"/>
      <point x="132" y="180"/>
      <point x="132" y="259" type="curve" smooth="yes"/>
      <point x="132" y="349"/>
      <point x="187" y="416"/>
      <point x="260" y="416" type="curve" smooth="yes"/>
      <point x="280" y="416" type="line" smooth="yes"/>
      <point x="353" y="416"/>
      <point x="408" y="349"/>
      <point x="408" y="259" type="curve" smooth="yes"/>
      <point x="408" y="181"/>
      <point x="354" y="114"/>
    </contour>
    <contour>
      <point x="558" y="96" type="curve"/>
      <point x="558" y="23" type="line"/>
      <point x="392" y="23"/>
      <point x="346" y="34"/>
      <point x="293" y="58" type="curve"/>
      <point x="293" y="61" type="line"/>
      <point x="378" y="106"/>
      <point x="427" y="177"/>
      <point x="427" y="259" type="curve" smooth="yes"/>
      <point x="427" y="299"/>
      <point x="417" y="335"/>
      <point x="399" y="364" type="curve"/>
      <point x="516" y="289"/>
      <point x="558" y="219"/>
    </contour>
    <contour>
      <point x="270.0" y="0.0" type="move" name="bottom"/>
    </contour>
    <contour>
      <point x="270.0" y="439.0" type="move" name="top"/>
    </contour>
  </outline>
</glyph>
<glyph name="hehgoalHamzaabove-ar" format="1">
  <advance width="418"/>
  <unicode hex="06C2"/>
  <outline>
    <component base="heh-ar"/>
    <component base="hamzaabove-ar" xOffset="92" yOffset="97"/>
    <contour>
      <point x="205.0" y="-12.0" type="move" name="bottom"/>
    </contour>
    <contour>
      <point x="203.0" y="386.0" type="move" name="top"/>
    </contour>
  </outline>
</glyph>
<glyph name="oe-ar" format="1">
  <advance width="445"/>
  <unicode hex="06C6"/>
  <outline>
    <component base="waw-ar"/>
    <component base="vabove-ar" xOffset="128" yOffset="90"/>
    <contour>
      <point x="390.0" y="-118.0" type="move" name="bar"/>
    </contour>
    <contour>
      <point x="186.0" y="-240.0" type="move" name="bottom"/>
    </contour>
    <contour>
      <point x="92.0" y="-99.0" type="move" name="center"/>
    </contour>
    <contour>
      <point x="337.0" y="379.0" type="move" name="high"/>
    </contour>
    <contour>
      <point x="168.0" y="-81.0" type="move" name="ring"/>
    </contour>
    <contour>
      <point x="228.0" y="379.0" type="move" name="top"/>
    </contour>
  </outline>
</glyph>
<glyph name="kirghizyu-ar" format="1">
  <advance width="445"/>
  <unicode hex="06C9"/>
  <outline>
    <component base="waw-ar"/>
    <component base="vinvertedabove-ar" xOffset="128" yOffset="130"/>
    <contour>
      <point x="390.0" y="-118.0" type="move" name="bar"/>
    </contour>
    <contour>
      <point x="186.0" y="-240.0" type="move" name="bottom"/>
    </contour>
    <contour>
      <point x="92.0" y="-99.0" type="move" name="center"/>
    </contour>
    <contour>
      <point x="337.0" y="379.0" type="move" name="high"/>
    </contour>
    <contour>
      <point x="168.0" y="-81.0" type="move" name="ring"/>
    </contour>
    <contour>
      <point x="228.0" y="379.0" type="move" name="top"/>
    </contour>
  </outline>
</glyph>
<glyph name="e-ar" format="1">
  <advance width="716"/>
  <unicode hex="06D0"/>
  <outline>
    <component base="alefMaksura-ar"/>
    <component base="twodotsverticalbelow-ar" xOffset="168" yOffset="-901"/>
    <contour>
      <point x="357.0" y="-240.0" type="move" name="bottom"/>
    </contour>
    <contour>
      <point x="515.0" y="460.0" type="move" name="high"/>
    </contour>
    <contour>
      <point x="357.0" y="-240.0" type="move" name="ring"/>
    </contour>
    <contour>
      <point x="115.0" y="202.0" type="move" name="tail"/>
    </contour>
    <contour>
      <point x="106.0" y="202.0" type="move" name="top"/>
    </contour>
  </outline>
</glyph>
<glyph name="fullstop-ar" format="1">
  <advance width="277"/>
  <unicode hex="06D4"/>
  <outline>
    <contour>
      <point x="257" y="23" type="line" name="hr00"/>
      <point x="154" y="23" type="line" smooth="yes"/>
      <point x="93" y="23"/>
      <point x="68" y="27"/>
      <point x="27" y="44" type="curve"/>
      <point x="20" y="25" type="line"/>
      <point x="62" y="5"/>
      <point x="89" y="0"/>
      <point x="154" y="0" type="curve" smooth="yes"/>
      <point x="257" y="0" type="line"/>
    </contour>
  </outline>
</glyph>
<glyph name="qafLamAlefMaksuraabove-ar" format="1">
  <advance width="0"/>
  <unicode hex="06D7"/>
  <outline>
    <contour>
      <point x="36" y="305" type="curve" name="hr00"/>
      <point x="301" y="305" type="line"/>
      <point x="301" y="325" type="line"/>
      <point x="32" y="325" type="line"/>
      <point x="32" y="340" type="line" smooth="yes"/>
      <point x="32" y="358"/>
      <point x="39" y="367"/>
      <point x="59" y="371" type="curve" smooth="yes"/>
      <point x="91" y="378" type="line" smooth="yes"/>
      <point x="120" y="384"/>
      <point x="128" y="391"/>
      <point x="130" y="410" type="curve"/>
      <point x="133" y="410" type="line"/>
      <point x="133" y="385"/>
      <point x="144" y="369"/>
      <point x="179" y="369" type="curve" smooth="yes"/>
      <point x="241" y="369" type="line" smooth="yes"/>
      <point x="276" y="369"/>
      <point x="311" y="374"/>
      <point x="311" y="452" type="curve" smooth="yes"/>
      <point x="311" y="508"/>
      <point x="290" y="543"/>
      <point x="254" y="543" type="curve" smooth="yes"/>
      <point x="222" y="543"/>
      <point x="198" y="511"/>
      <point x="198" y="474" type="curve" smooth="yes"/>
      <point x="198" y="443"/>
      <point x="218" y="425"/>
      <point x="250" y="425" type="curve" smooth="yes"/>
      <point x="269" y="425"/>
      <point x="285" y="433"/>
      <point x="295" y="446" type="curve"/>
      <point x="296" y="446" type="line"/>
      <point x="296" y="441" type="line" smooth="yes"/>
      <point x="296" y="396"/>
      <point x="272" y="389"/>
      <point x="241" y="389" type="curve" smooth="yes"/>
      <point x="176" y="389" type="line" smooth="yes"/>
      <point x="151" y="389"/>
      <point x="144" y="404"/>
      <point x="144" y="424" type="curve" smooth="yes"/>
      <point x="144" y="601" type="line"/>
      <point x="128" y="601" type="line"/>
      <point x="128" y="432" type="line" smooth="yes"/>
      <point x="128" y="412"/>
      <point x="122" y="405"/>
      <point x="100" y="400" type="curve" smooth="yes"/>
      <point x="59" y="391" type="line" smooth="yes"/>
      <point x="27" y="384"/>
      <point x="16" y="370"/>
      <point x="16" y="340" type="curve" smooth="yes"/>
      <point x="16" y="326" type="line" smooth="yes"/>
      <point x="16" y="314"/>
      <point x="23" y="305"/>
    </contour>
    <contour>
      <point x="255" y="444" type="curve"/>
      <point x="250" y="444" type="line" smooth="yes"/>
      <point x="227" y="444"/>
      <point x="214" y="455"/>
      <point x="214" y="476" type="curve" smooth="yes"/>
      <point x="214" y="503"/>
      <point x="231" y="524"/>
      <point x="253" y="524" type="curve" smooth="yes"/>
      <point x="279" y="524"/>
      <point x="296" y="498"/>
      <point x="296" y="459" type="curve" smooth="yes"/>
      <point x="296" y="457" type="line"/>
      <point x="285" y="447"/>
      <point x="269" y="444"/>
    </contour>
    <contour>
      <point x="232" y="580" type="curve"/>
      <point x="235" y="580" type="line" smooth="yes"/>
      <point x="241" y="580"/>
      <point x="246" y="584"/>
      <point x="246" y="592" type="curve" smooth="yes"/>
      <point x="246" y="599"/>
      <point x="241" y="604"/>
      <point x="235" y="604" type="curve" smooth="yes"/>
      <point x="232" y="604" type="line" smooth="yes"/>
      <point x="226" y="604"/>
      <point x="221" y="599"/>
      <point x="221" y="592" type="curve" smooth="yes"/>
      <point x="221" y="584"/>
      <point x="226" y="580"/>
    </contour>
    <contour>
      <point x="274" y="580" type="curve"/>
      <point x="277" y="580" type="line" smooth="yes"/>
      <point x="283" y="580"/>
      <point x="287" y="584"/>
      <point x="287" y="592" type="curve" smooth="yes"/>
      <point x="287" y="599"/>
      <point x="283" y="604"/>
      <point x="277" y="604" type="curve" smooth="yes"/>
      <point x="274" y="604" type="line" smooth="yes"/>
      <point x="268" y="604"/>
      <point x="263" y="599"/>
      <point x="263" y="592" type="curve" smooth="yes"/>
      <point x="263" y="584"/>
      <point x="268" y="580"/>
    </contour>
    <contour>
      <point x="164.0" y="249.0" type="move" name="_top"/>
    </contour>
    <contour>
      <point x="164.0" y="604.0" type="move" name="top"/>
    </contour>
  </outline>
</glyph>
<glyph name="lamAlefabove-ar" format="1">
  <advance width="0"/>
  <unicode hex="06D9"/>
  <outline>
    <contour>
      <point x="12" y="369" type="line"/>
      <point x="115" y="369" type="line" smooth="yes"/>
      <point x="128" y="369"/>
      <point x="136" y="379"/>
      <point x="136" y="389" type="curve" smooth="yes"/>
      <point x="136" y="398"/>
      <point x="130" y="406"/>
      <point x="122" y="416" type="curve" smooth="yes"/>
      <point x="96" y="448" type="line"/>
      <point x="126" y="476"/>
      <point x="126" y="496"/>
      <point x="126" y="519" type="curve" smooth="yes" name="hr01"/>
      <point x="126" y="601" type="line"/>
      <point x="109" y="601" type="line"/>
      <point x="109" y="514" type="line" smooth="yes"/>
      <point x="109" y="480"/>
      <point x="99" y="472"/>
      <point x="86" y="459" type="curve"/>
      <point x="5" y="558" type="line"/>
      <point x="-7" y="547" type="line"/>
      <point x="74" y="447" type="line"/>
      <point x="12" y="388" type="line"/>
    </contour>
    <contour>
      <point x="122" y="389" type="line" name="hr02"/>
      <point x="34" y="389" type="line"/>
      <point x="34" y="390" type="line"/>
      <point x="83" y="436" type="line"/>
    </contour>
    <contour>
      <point x="66.0" y="300.0" type="move" name="_top"/>
    </contour>
    <contour>
      <point x="65.0" y="601.0" type="move" name="top"/>
    </contour>
  </outline>
</glyph>
<glyph name="jeemabove-ar" format="1">
  <advance width="0"/>
  <unicode hex="06DA"/>
  <outline>
    <contour>
      <point x="104" y="300" type="curve" smooth="yes"/>
      <point x="138" y="300"/>
      <point x="169" y="311"/>
      <point x="194" y="339" type="curve"/>
      <point x="182" y="355" type="line"/>
      <point x="162" y="331"/>
      <point x="135" y="321"/>
      <point x="105" y="321" type="curve" smooth="yes"/>
      <point x="57" y="321"/>
      <point x="29" y="346"/>
      <point x="29" y="385" type="curve" smooth="yes"/>
      <point x="29" y="391" type="line" smooth="yes"/>
      <point x="29" y="430"/>
      <point x="57" y="450"/>
      <point x="102" y="469" type="curve" smooth="yes"/>
      <point x="179" y="501" type="line"/>
      <point x="179" y="529" type="line"/>
      <point x="49" y="535" type="line" smooth="yes"/>
      <point x="34" y="536"/>
      <point x="26" y="525"/>
      <point x="26" y="514" type="curve" smooth="yes" name="hr01"/>
      <point x="26" y="490" type="line"/>
      <point x="41" y="490" type="line"/>
      <point x="41" y="515" type="line"/>
      <point x="165" y="512" type="line"/>
      <point x="165" y="511" type="line"/>
      <point x="96" y="482" type="line" smooth="yes"/>
      <point x="39" y="458"/>
      <point x="13" y="426"/>
      <point x="13" y="386" type="curve" smooth="yes" name="hr02"/>
      <point x="13" y="333"/>
      <point x="50" y="300"/>
    </contour>
    <contour>
      <point x="102" y="383" type="curve"/>
      <point x="105" y="383" type="line" smooth="yes"/>
      <point x="111" y="383"/>
      <point x="116" y="387"/>
      <point x="116" y="394" type="curve" smooth="yes"/>
      <point x="116" y="402"/>
      <point x="111" y="406"/>
      <point x="105" y="406" type="curve" smooth="yes"/>
      <point x="102" y="406" type="line" smooth="yes"/>
      <point x="96" y="406"/>
      <point x="91" y="402"/>
      <point x="91" y="394" type="curve" smooth="yes"/>
      <point x="91" y="387"/>
      <point x="96" y="383"/>
    </contour>
    <contour>
      <point x="104.0" y="243.0" type="move" name="_top"/>
    </contour>
    <contour>
      <point x="104.0" y="534.0" type="move" name="top"/>
    </contour>
  </outline>
</glyph>
<glyph name="endofayah-ar" format="1">
  <advance width="1160"/>
  <unicode hex="06DD"/>
  <outline>
    <contour>
      <point x="580" y="-240" type="curve" smooth="yes" name="hr00"/>
      <point x="871" y="-240"/>
      <point x="1090" y="-21"/>
      <point x="1090" y="270" type="curve" smooth="yes"/>
      <point x="1090" y="561"/>
      <point x="871" y="780"/>
      <point x="580" y="780" type="curve" smooth="yes"/>
      <point x="289" y="780"/>
      <point x="70" y="561"/>
      <point x="70" y="270" type="curve" smooth="yes"/>
      <point x="70" y="-21"/>
      <point x="289" y="-240"/>
    </contour>
    <contour>
      <point x="577" y="-190" type="curve" smooth="yes"/>
      <point x="583" y="-190" type="line" smooth="yes"/>
      <point x="599" y="-190"/>
      <point x="611" y="-180"/>
      <point x="611" y="-160" type="curve" smooth="yes"/>
      <point x="611" y="-140"/>
      <point x="599" y="-130"/>
      <point x="583" y="-130" type="curve" smooth="yes"/>
      <point x="577" y="-130" type="line" smooth="yes"/>
      <point x="561" y="-130"/>
      <point x="549" y="-140"/>
      <point x="549" y="-160" type="curve" smooth="yes"/>
      <point x="549" y="-180"/>
      <point x="561" y="-190"/>
    </contour>
    <contour>
      <point x="570" y="-218" type="line" smooth="yes"/>
      <point x="295" y="-218"/>
      <point x="88" y="-9"/>
      <point x="88" y="270" type="curve" smooth="yes"/>
      <point x="88" y="549"/>
      <point x="295" y="758"/>
      <point x="570" y="758" type="curve" smooth="yes"/>
      <point x="590" y="758" type="line" smooth="yes"/>
      <point x="865" y="758"/>
      <point x="1072" y="549"/>
      <point x="1072" y="270" type="curve" smooth="yes"/>
      <point x="1072" y="-9"/>
      <point x="865" y="-218"/>
      <point x="590" y="-218" type="curve" smooth="yes"/>
    </contour>
    <contour>
      <point x="577" y="670" type="curve" smooth="yes"/>
      <point x="583" y="670" type="line" smooth="yes"/>
      <point x="599" y="670"/>
      <point x="611" y="680"/>
      <point x="611" y="700" type="curve" smooth="yes"/>
      <point x="611" y="720"/>
      <point x="599" y="730"/>
      <point x="583" y="730" type="curve" smooth="yes"/>
      <point x="577" y="730" type="line" smooth="yes"/>
      <point x="561" y="730"/>
      <point x="549" y="720"/>
      <point x="549" y="700" type="curve" smooth="yes"/>
      <point x="549" y="680"/>
      <point x="561" y="670"/>
    </contour>
  </outline>
</glyph>
<glyph name="asteriskArt-ar" format="1">
  <advance width="1096"/>
  <unicode hex="06DE"/>
  <outline>
    <contour>
      <point x="50" y="285" type="line" name="hr00"/>
      <point x="196" y="139" type="line"/>
      <point x="196" y="-67" type="line"/>
      <point x="402" y="-67" type="line"/>
      <point x="548" y="-213" type="line"/>
      <point x="694" y="-67" type="line"/>
      <point x="900" y="-67" type="line"/>
      <point x="900" y="139" type="line"/>
      <point x="1046" y="285" type="line"/>
      <point x="900" y="431" type="line"/>
      <point x="900" y="637" type="line"/>
      <point x="694" y="637" type="line"/>
      <point x="548" y="783" type="line"/>
      <point x="402" y="637" type="line"/>
      <point x="196" y="637" type="line"/>
      <point x="196" y="431" type="line"/>
    </contour>
    <contour>
      <point x="219" y="149" type="line"/>
      <point x="219" y="421" type="line"/>
      <point x="412" y="614" type="line"/>
      <point x="684" y="614" type="line"/>
      <point x="877" y="421" type="line"/>
      <point x="877" y="149" type="line"/>
      <point x="684" y="-44" type="line"/>
      <point x="412" y="-44" type="line"/>
    </contour>
    <contour>
      <point x="548" y="175" type="curve" smooth="yes"/>
      <point x="611" y="175"/>
      <point x="658" y="223"/>
      <point x="658" y="286" type="curve" smooth="yes"/>
      <point x="658" y="348"/>
      <point x="611" y="395"/>
      <point x="548" y="395" type="curve" smooth="yes"/>
      <point x="485" y="395"/>
      <point x="438" y="348"/>
      <point x="438" y="286" type="curve" smooth="yes"/>
      <point x="438" y="223"/>
      <point x="485" y="175"/>
    </contour>
    <contour>
      <point x="548" y="198" type="curve" smooth="yes"/>
      <point x="498" y="198"/>
      <point x="461" y="236"/>
      <point x="461" y="286" type="curve" smooth="yes"/>
      <point x="461" y="335"/>
      <point x="498" y="372"/>
      <point x="548" y="372" type="curve" smooth="yes"/>
      <point x="598" y="372"/>
      <point x="635" y="335"/>
      <point x="635" y="286" type="curve" smooth="yes"/>
      <point x="635" y="236"/>
      <point x="598" y="198"/>
    </contour>
    <contour>
      <point x="219" y="614" type="line"/>
      <point x="379" y="614" type="line"/>
      <point x="219" y="454" type="line"/>
    </contour>
    <contour>
      <point x="877" y="614" type="line"/>
      <point x="877" y="454" type="line"/>
      <point x="717" y="614" type="line"/>
    </contour>
    <contour>
      <point x="717" y="-44" type="line"/>
      <point x="877" y="116" type="line"/>
      <point x="877" y="-44" type="line"/>
    </contour>
    <contour>
      <point x="219" y="116" type="line"/>
      <point x="379" y="-44" type="line"/>
      <point x="219" y="-44" type="line"/>
    </contour>
    <contour>
      <point x="1013" y="285" type="line"/>
      <point x="900" y="172" type="line"/>
      <point x="900" y="398" type="line"/>
    </contour>
    <contour>
      <point x="435" y="-67" type="line"/>
      <point x="661" y="-67" type="line"/>
      <point x="548" y="-180" type="line"/>
    </contour>
    <contour>
      <point x="83" y="285" type="line"/>
      <point x="196" y="398" type="line"/>
      <point x="196" y="172" type="line"/>
    </contour>
    <contour>
      <point x="548" y="750" type="line"/>
      <point x="661" y="637" type="line"/>
      <point x="435" y="637" type="line"/>
    </contour>
  </outline>
</glyph>
<glyph name="hahabove-ar" format="1">
  <advance width="0"/>
  <unicode hex="06E1"/>
  <outline>
    <contour>
      <point x="13" y="370" type="line" name="hr00"/>
      <point x="26" y="370" type="line" smooth="yes"/>
      <point x="69" y="370"/>
      <point x="90" y="378"/>
      <point x="142" y="411" type="curve" smooth="yes"/>
      <point x="192" y="442" type="line"/>
      <point x="192" y="456" type="line"/>
      <point x="59" y="488" type="line" smooth="yes"/>
      <point x="55" y="489"/>
      <point x="44" y="492"/>
      <point x="41" y="492" type="curve" smooth="yes"/>
      <point x="30" y="492"/>
      <point x="23" y="484"/>
      <point x="23" y="471" type="curve" smooth="yes"/>
      <point x="23" y="447" type="line"/>
      <point x="39" y="447" type="line"/>
      <point x="39" y="474" type="line"/>
      <point x="165" y="443" type="line"/>
      <point x="165" y="442" type="line"/>
      <point x="135" y="424" type="line" smooth="yes"/>
      <point x="89" y="397"/>
      <point x="70" y="390"/>
      <point x="26" y="390" type="curve" smooth="yes"/>
      <point x="13" y="390" type="line"/>
    </contour>
    <contour>
      <point x="109.0" y="289.0" type="move" name="_top"/>
    </contour>
    <contour>
      <point x="109.0" y="492.0" type="move" name="top"/>
    </contour>
  </outline>
</glyph>
<glyph name="meemStopabove-ar" format="1">
  <advance width="0"/>
  <unicode hex="06E2"/>
  <outline>
    <component base="comp.meemSmall-ar"/>
    <contour>
      <point x="81.0" y="289.0" type="move" name="_top"/>
    </contour>
    <contour>
      <point x="81.0" y="516.0" type="move" name="top"/>
    </contour>
  </outline>
</glyph>
<glyph name="sindhipostpositionmen-ar" format="1">
  <advance width="510"/>
  <unicode hex="06FE"/>
  <outline>
    <component base="meem-ar"/>
    <component base="uniFBBC" xOffset="216" yOffset="-608"/>
    <contour>
      <point x="276.0" y="0.0" type="move" name="bottom"/>
    </contour>
    <contour>
      <point x="276.0" y="409.0" type="move" name="top"/>
    </contour>
  </outline>
</glyph>
<glyph name="hehVinvertedabove-ar" format="1">
  <advance width="637"/>
  <unicode hex="06FF"/>
  <outline>
    <component base="hehDoachashmee-ar"/>
    <component base="vinvertedabove-ar" xOffset="170" yOffset="190"/>
    <contour>
      <point x="270.0" y="0.0" type="move" name="bottom"/>
    </contour>
    <contour>
      <point x="270.0" y="439.0" type="move" name="top"/>
    </contour>
  </outline>
</glyph>
<glyph name="behThreedotsupabove-ar" format="1">
  <advance width="826"/>
  <unicode hex="0751"/>
  <outline>
    <component base="behDotless-ar"/>
    <component base="dotbelow-ar" xOffset="352" yOffset="-617"/>
    <component base="threedotsupabove-ar" xOffset="290" yOffset="-40"/>
    <contour>
      <point x="415.0" y="0.0" type="move" name="bottom"/>
    </contour>
    <contour>
      <point x="416.0" y="-12.0" type="move" name="ring"/>
    </contour>
    <contour>
      <point x="416.0" y="249.0" type="move" name="top"/>
    </contour>
  </outline>
</glyph>
<glyph name="behVabove-ar" format="1">
  <advance width="826"/>
  <unicode hex="0756"/>
  <outline>
    <component base="behDotless-ar"/>
    <component base="vabove-ar" xOffset="316" yOffset="-40"/>
    <contour>
      <point x="415.0" y="0.0" type="move" name="bottom"/>
    </contour>
    <contour>
      <point x="416.0" y="-12.0" type="move" name="ring"/>
    </contour>
    <contour>
      <point x="416.0" y="249.0" type="move" name="top"/>
    </contour>
  </outline>
</glyph>
<glyph name="ainTwodotshorizontalabove-ar" format="1">
  <advance width="573"/>
  <unicode hex="075D"/>
  <outline>
    <component base="ain-ar"/>
    <component base="twodotshorizontalabove-ar" xOffset="185" yOffset="276"/>
    <contour>
      <point x="344.0" y="-304.0" type="move" name="bottom"/>
    </contour>
    <contour>
      <point x="313.0" y="-42.0" type="move" name="center"/>
    </contour>
    <contour>
      <point x="311.0" y="565.0" type="move" name="top"/>
    </contour>
  </outline>
</glyph>
<glyph name="ainThreedotsdownabove-ar" format="1">
  <advance width="573"/>
  <unicode hex="075E"/>
  <outline>
    <component base="ain-ar"/>
    <component base="threedotsdownabove-ar" xOffset="189" yOffset="276"/>
    <contour>
      <point x="344.0" y="-304.0" type="move" name="bottom"/>
    </contour>
    <contour>
      <point x="313.0" y="-42.0" type="move" name="center"/>
    </contour>
    <contour>
      <point x="311.0" y="565.0" type="move" name="top"/>
    </contour>
  </outline>
</glyph>
<glyph name="meemDotabove-ar" format="1">
  <advance width="510"/>
  <unicode hex="0765"/>
  <outline>
    <component base="meem-ar"/>
    <component base="dotabove-ar" xOffset="213" yOffset="120"/>
    <contour>
      <point x="276.0" y="0.0" type="move" name="bottom"/>
    </contour>
    <contour>
      <point x="276.0" y="409.0" type="move" name="top"/>
    </contour>
  </outline>
</glyph>
<glyph name="noonTahabove-ar" format="1">
  <advance width="653"/>
  <unicode hex="0768"/>
  <outline>
    <component base="noonghunna-ar"/>
    <component base="dotabove-ar" xOffset="274" yOffset="-40"/>
    <component base="tahabove-ar" xOffset="219" yOffset="131"/>
    <contour>
      <point x="317.0" y="-160.0" type="move" name="bottom"/>
    </contour>
    <contour>
      <point x="337.0" y="249.0" type="move" name="top"/>
    </contour>
  </outline>
</glyph>
<glyph name="hahTahbelow-ar" format="1">
  <advance width="586"/>
  <unicode hex="076E"/>
  <outline>
    <component base="hah-ar"/>
    <component base="tahcenter-ar" xOffset="205" yOffset="-463"/>
    <contour>
      <point x="337.0" y="-304.0" type="move" name="bottom"/>
    </contour>
    <contour>
      <point x="324.0" y="11.0" type="move" name="center"/>
    </contour>
    <contour>
      <point x="305.0" y="404.0" type="move" name="top"/>
    </contour>
  </outline>
</glyph>
<glyph name="hahTahabove-ar" format="1">
  <advance width="586"/>
  <unicode hex="0772"/>
  <outline>
    <component base="hah-ar"/>
    <component base="tahabove-ar" xOffset="187" yOffset="115"/>
    <contour>
      <point x="337.0" y="-304.0" type="move" name="bottom"/>
    </contour>
    <contour>
      <point x="324.0" y="11.0" type="move" name="center"/>
    </contour>
    <contour>
      <point x="305.0" y="404.0" type="move" name="top"/>
    </contour>
  </outline>
</glyph>
<glyph name="yehThreeabove-farsi" format="1">
  <advance width="716"/>
  <unicode hex="0776"/>
  <outline>
    <component base="alefMaksura-ar"/>
    <component base="threeabove-ar" xOffset="-9" yOffset="-87"/>
    <contour>
      <point x="357.0" y="-240.0" type="move" name="bottom"/>
    </contour>
    <contour>
      <point x="515.0" y="460.0" type="move" name="high"/>
    </contour>
    <contour>
      <point x="357.0" y="-240.0" type="move" name="ring"/>
    </contour>
    <contour>
      <point x="115.0" y="202.0" type="move" name="tail"/>
    </contour>
  </outline>
</glyph>
<glyph name="qafDotbelow-ar" format="1">
  <advance width="713"/>
  <unicode hex="08A5"/>
  <outline>
    <component base="qafDotless-ar"/>
    <component base="twodotshorizontalabove-ar" xOffset="366" yOffset="90"/>
    <component base="dotbelow-ar" xOffset="294" yOffset="-857"/>
    <contour>
      <point x="357.0" y="-240.0" type="move" name="bottom"/>
    </contour>
    <contour>
      <point x="492.0" y="379.0" type="move" name="top"/>
    </contour>
  </outline>
</glyph>
<glyph name="lamDoublebar-ar" format="1">
  <advance width="653"/>
  <unicode hex="08A6"/>
  <outline>
    <contour>
      <point x="453" y="454" type="line" name="hr00"/>
      <point x="543" y="454" type="line"/>
      <point x="543" y="394" type="line"/>
      <point x="453" y="394" type="line"/>
      <point x="453" y="374" type="line"/>
      <point x="543" y="374" type="line"/>
      <point x="543" y="6" type="line" smooth="yes"/>
      <point x="543" y="-134"/>
      <point x="454" y="-217"/>
      <point x="305" y="-217" type="curve" smooth="yes"/>
      <point x="289" y="-217" type="line" smooth="yes"/>
      <point x="151" y="-217"/>
      <point x="69" y="-133"/>
      <point x="69" y="10" type="curve" smooth="yes"/>
      <point x="69" y="66"/>
      <point x="85" y="133"/>
      <point x="115" y="202" type="curve"/>
      <point x="97" y="210" type="line"/>
      <point x="68" y="143"/>
      <point x="50" y="72"/>
      <point x="50" y="10" type="curve" smooth="yes"/>
      <point x="50" y="-147"/>
      <point x="142" y="-240"/>
      <point x="297" y="-240" type="curve" smooth="yes"/>
      <point x="463" y="-240"/>
      <point x="563" y="-148"/>
      <point x="563" y="6" type="curve" smooth="yes"/>
      <point x="563" y="374" type="line"/>
      <point x="653" y="374" type="line"/>
      <point x="653" y="394" type="line"/>
      <point x="563" y="394" type="line"/>
      <point x="563" y="454" type="line"/>
      <point x="653" y="454" type="line"/>
      <point x="653" y="474" type="line"/>
      <point x="563" y="474" type="line"/>
      <point x="563" y="740" type="line"/>
      <point x="543" y="740" type="line"/>
      <point x="543" y="474" type="line"/>
      <point x="453" y="474" type="line"/>
    </contour>
  </outline>
</glyph>
<glyph name="dammaCurly-ar" format="1">
  <advance width="0"/>
  <unicode hex="08E5"/>
  <outline>
    <contour>
      <point x="42" y="340" type="curve" name="hr00"/>
      <point x="155" y="392" type="line" smooth="yes"/>
      <point x="205" y="415"/>
      <point x="228" y="443"/>
      <point x="228" y="481" type="curve" smooth="yes"/>
      <point x="228" y="522"/>
      <point x="198" y="552"/>
      <point x="159" y="552" type="curve" smooth="yes"/>
      <point x="120" y="552"/>
      <point x="90" y="521"/>
      <point x="90" y="478" type="curve" smooth="yes"/>
      <point x="90" y="448"/>
      <point x="108" y="423"/>
      <point x="138" y="408" type="curve"/>
      <point x="138" y="406" type="line"/>
      <point x="31" y="357" type="line"/>
      <point x="17" y="390" type="line"/>
      <point x="0" y="382" type="line"/>
      <point x="15" y="349" type="line" smooth="yes"/>
      <point x="21" y="337"/>
      <point x="29" y="334"/>
    </contour>
    <contour>
      <point x="108" y="478" type="curve" smooth="yes"/>
      <point x="108" y="509"/>
      <point x="130" y="532"/>
      <point x="159" y="532" type="curve" smooth="yes"/>
      <point x="188" y="532"/>
      <point x="210" y="510"/>
      <point x="210" y="481" type="curve" smooth="yes"/>
      <point x="210" y="452"/>
      <point x="193" y="432"/>
      <point x="158" y="415" type="curve"/>
      <point x="148" y="420" type="line" smooth="yes"/>
      <point x="123" y="433"/>
      <point x="108" y="455"/>
    </contour>
    <contour>
      <point x="142.0" y="289.0" type="move" name="_top"/>
    </contour>
    <contour>
      <point x="132.0" y="582.0" type="move" name="top"/>
    </contour>
  </outline>
</glyph>
<glyph name="kasraCurly-ar" format="1">
  <advance width="0"/>
  <unicode hex="08E6"/>
  <outline>
    <component base="comp.fathacurly-ar"/>
    <contour>
      <point x="113.0" y="543.0" type="move" name="_bottom"/>
    </contour>
    <contour>
      <point x="113.0" y="427.0" type="move" name="bottom"/>
    </contour>
  </outline>
</glyph>
<glyph name="dammatanCurly-ar" format="1">
  <advance width="0"/>
  <unicode hex="08E8"/>
  <outline>
    <contour>
      <point x="135" y="340" type="curve" name="hr00"/>
      <point x="248" y="392" type="line" smooth="yes"/>
      <point x="298" y="415"/>
      <point x="321" y="443"/>
      <point x="321" y="481" type="curve" smooth="yes"/>
      <point x="321" y="522"/>
      <point x="291" y="552"/>
      <point x="252" y="552" type="curve" smooth="yes"/>
      <point x="213" y="552"/>
      <point x="183" y="521"/>
      <point x="183" y="478" type="curve" smooth="yes"/>
      <point x="183" y="448"/>
      <point x="201" y="423"/>
      <point x="231" y="408" type="curve"/>
      <point x="231" y="406" type="line"/>
      <point x="124" y="357" type="line"/>
      <point x="110" y="390" type="line"/>
      <point x="93" y="382" type="line"/>
      <point x="108" y="349" type="line" smooth="yes"/>
      <point x="114" y="337"/>
      <point x="122" y="334"/>
    </contour>
    <contour>
      <point x="201" y="478" type="curve" smooth="yes"/>
      <point x="201" y="509"/>
      <point x="223" y="532"/>
      <point x="252" y="532" type="curve" smooth="yes"/>
      <point x="281" y="532"/>
      <point x="303" y="510"/>
      <point x="303" y="481" type="curve" smooth="yes"/>
      <point x="303" y="452"/>
      <point x="286" y="432"/>
      <point x="251" y="415" type="curve"/>
      <point x="241" y="420" type="line" smooth="yes"/>
      <point x="216" y="433"/>
      <point x="201" y="455"/>
    </contour>
    <contour>
      <point x="206" y="642" type="curve"/>
      <point x="93" y="590" type="line" smooth="yes"/>
      <point x="43" y="567"/>
      <point x="20" y="539"/>
      <point x="20" y="501" type="curve" smooth="yes"/>
      <point x="20" y="460"/>
      <point x="50" y="430"/>
      <point x="89" y="430" type="curve" smooth="yes"/>
      <point x="128" y="430"/>
      <point x="158" y="461"/>
      <point x="158" y="504" type="curve" smooth="yes"/>
      <point x="158" y="534"/>
      <point x="140" y="559"/>
      <point x="110" y="574" type="curve"/>
      <point x="110" y="576" type="line"/>
      <point x="217" y="625" type="line"/>
      <point x="231" y="592" type="line"/>
      <point x="248" y="600" type="line"/>
      <point x="233" y="633" type="line" smooth="yes"/>
      <point x="227" y="645"/>
      <point x="219" y="648"/>
    </contour>
    <contour>
      <point x="140" y="504" type="curve" smooth="yes"/>
      <point x="140" y="473"/>
      <point x="118" y="450"/>
      <point x="89" y="450" type="curve" smooth="yes"/>
      <point x="60" y="450"/>
      <point x="38" y="472"/>
      <point x="38" y="501" type="curve" smooth="yes"/>
      <point x="38" y="530"/>
      <point x="55" y="550"/>
      <point x="90" y="567" type="curve"/>
      <point x="100" y="562" type="line" smooth="yes"/>
      <point x="125" y="549"/>
      <point x="140" y="527"/>
    </contour>
    <contour>
      <point x="170.0" y="289.0" type="move" name="_top"/>
    </contour>
    <contour>
      <point x="170.0" y="643.0" type="move" name="top"/>
    </contour>
  </outline>
</glyph>
<glyph name="fathaDotabove-ar" format="1">
  <advance width="0"/>
  <unicode hex="08F5"/>
  <outline>
    <component base="comp.fatha-ar"/>
    <component base="comp.dot" xOffset="-10" yOffset="51"/>
    <contour>
      <point x="113.0" y="289.0" type="move" name="_top"/>
    </contour>
    <contour>
      <point x="113.0" y="407.0" type="move" name="top"/>
    </contour>
  </outline>
</glyph>
<glyph name="leftarrowheadabove-ar" format="1">
  <advance width="0"/>
  <unicode hex="08F7"/>
  <outline>
    <contour>
      <point x="179" y="362" type="line" name="hr00"/>
      <point x="179" y="384" type="line"/>
      <point x="38" y="447" type="line"/>
      <point x="38" y="449" type="line"/>
      <point x="179" y="511" type="line"/>
      <point x="179" y="531" type="line"/>
      <point x="20" y="459" type="line"/>
      <point x="20" y="434" type="line"/>
    </contour>
    <contour>
      <point x="100.0" y="531.0" type="move" name="_top"/>
    </contour>
    <contour>
      <point x="100.0" y="289.0" type="move" name="top"/>
    </contour>
  </outline>
</glyph>
<glyph name="arrowupleftcorner" format="1">
  <advance width="746"/>
  <unicode hex="21B0"/>
  <outline>
    <contour>
      <point x="92" y="523" type="line" name="hr00"/>
      <point x="279" y="336" type="line"/>
      <point x="294" y="351" type="line"/>
      <point x="183" y="462" type="line"/>
      <point x="129" y="512" type="line"/>
      <point x="130" y="514" type="line"/>
      <point x="238" y="513" type="line"/>
      <point x="546" y="513" type="line"/>
      <point x="546" y="0" type="line"/>
      <point x="566" y="0" type="line"/>
      <point x="566" y="533" type="line"/>
      <point x="238" y="533" type="line"/>
      <point x="130" y="532" type="line"/>
      <point x="129" y="534" type="line"/>
      <point x="183" y="584" type="line"/>
      <point x="294" y="695" type="line"/>
      <point x="279" y="710" type="line"/>
    </contour>
  </outline>
</glyph>
<glyph name="dottedCircle" format="1">
  <advance width="600"/>
  <unicode hex="25CC"/>
  <outline>
    <contour>
      <point x="303" y="-12" type="curve" smooth="yes"/>
      <point x="321" y="-12"/>
      <point x="330" y="-3"/>
      <point x="330" y="13" type="curve" smooth="yes"/>
      <point x="330" y="21" type="line" smooth="yes"/>
      <point x="330" y="37"/>
      <point x="321" y="46"/>
      <point x="303" y="46" type="curve" smooth="yes"/>
      <point x="285" y="46"/>
      <point x="276" y="37"/>
      <point x="276" y="21" type="curve" smooth="yes"/>
      <point x="276" y="13" type="line" smooth="yes"/>
      <point x="276" y="-3"/>
      <point x="285" y="-12"/>
    </contour>
    <contour>
      <point x="175" y="22" type="curve" smooth="yes" name="hr01"/>
      <point x="193" y="22"/>
      <point x="202" y="31"/>
      <point x="202" y="47" type="curve" smooth="yes"/>
      <point x="202" y="55" type="line" smooth="yes"/>
      <point x="202" y="71"/>
      <point x="193" y="80"/>
      <point x="175" y="80" type="curve" smooth="yes"/>
      <point x="157" y="80"/>
      <point x="148" y="71"/>
      <point x="148" y="55" type="curve" smooth="yes"/>
      <point x="148" y="47" type="line" smooth="yes"/>
      <point x="148" y="31"/>
      <point x="157" y="22"/>
    </contour>
    <contour>
      <point x="80" y="117" type="curve" smooth="yes"/>
      <point x="98" y="117"/>
      <point x="107" y="126"/>
      <point x="107" y="142" type="curve" smooth="yes"/>
      <point x="107" y="150" type="line" smooth="yes"/>
      <point x="107" y="166"/>
      <point x="98" y="175"/>
      <point x="80" y="175" type="curve" smooth="yes"/>
      <point x="62" y="175"/>
      <point x="53" y="166"/>
      <point x="53" y="150" type="curve" smooth="yes"/>
      <point x="53" y="142" type="line" smooth="yes"/>
      <point x="53" y="126"/>
      <point x="62" y="117"/>
    </contour>
    <contour>
      <point x="46" y="245" type="curve" smooth="yes"/>
      <point x="64" y="245"/>
      <point x="73" y="254"/>
      <point x="73" y="270" type="curve" smooth="yes" name="hr02"/>
      <point x="73" y="278" type="line" smooth="yes"/>
      <point x="73" y="294"/>
      <point x="64" y="303"/>
      <point x="46" y="303" type="curve" smooth="yes"/>
      <point x="28" y="303"/>
      <point x="19" y="294"/>
      <point x="19" y="278" type="curve" smooth="yes"/>
      <point x="19" y="270" type="line" smooth="yes"/>
      <point x="19" y="254"/>
      <point x="28" y="245"/>
    </contour>
    <contour>
      <point x="80" y="373" type="curve" smooth="yes"/>
      <point x="98" y="373"/>
      <point x="107" y="382"/>
      <point x="107" y="398" type="curve" smooth="yes" name="hr03"/>
      <point x="107" y="406" type="line" smooth="yes"/>
      <point x="107" y="422"/>
      <point x="98" y="431"/>
      <point x="80" y="431" type="curve" smooth="yes"/>
      <point x="62" y="431"/>
      <point x="53" y="422"/>
      <point x="53" y="406" type="curve" smooth="yes"/>
      <point x="53" y="398" type="line" smooth="yes"/>
      <point x="53" y="382"/>
      <point x="62" y="373"/>
    </contour>
    <contour>
      <point x="175" y="468" type="curve" smooth="yes"/>
      <point x="193" y="468"/>
      <point x="202" y="477"/>
      <point x="202" y="493" type="curve" smooth="yes"/>
      <point x="202" y="501" type="line" smooth="yes"/>
      <point x="202" y="517"/>
      <point x="193" y="526"/>
      <point x="175" y="526" type="curve" smooth="yes"/>
      <point x="157" y="526"/>
      <point x="148" y="517"/>
      <point x="148" y="501" type="curve" smooth="yes"/>
      <point x="148" y="493" type="line" smooth="yes"/>
      <point x="148" y="477"/>
      <point x="157" y="468"/>
    </contour>
    <contour>
      <point x="303" y="502" type="curve" smooth="yes" name="hr04"/>
      <point x="321" y="502"/>
      <point x="330" y="511"/>
      <point x="330" y="527" type="curve" smooth="yes"/>
      <point x="330" y="535" type="line" smooth="yes"/>
      <point x="330" y="551"/>
      <point x="321" y="560"/>
      <point x="303" y="560" type="curve" smooth="yes"/>
      <point x="285" y="560"/>
      <point x="276" y="551"/>
      <point x="276" y="535" type="curve" smooth="yes"/>
      <point x="276" y="527" type="line" smooth="yes"/>
      <point x="276" y="511"/>
      <point x="285" y="502"/>
    </contour>
    <contour>
      <point x="431" y="468" type="curve" smooth="yes" name="hr05"/>
      <point x="449" y="468"/>
      <point x="458" y="477"/>
      <point x="458" y="493" type="curve" smooth="yes"/>
      <point x="458" y="501" type="line" smooth="yes"/>
      <point x="458" y="517"/>
      <point x="449" y="526"/>
      <point x="431" y="526" type="curve" smooth="yes"/>
      <point x="413" y="526"/>
      <point x="404" y="517"/>
      <point x="404" y="501" type="curve" smooth="yes"/>
      <point x="404" y="493" type="line" smooth="yes"/>
      <point x="404" y="477"/>
      <point x="413" y="468"/>
    </contour>
    <contour>
      <point x="526" y="373" type="curve" smooth="yes"/>
      <point x="544" y="373"/>
      <point x="553" y="382"/>
      <point x="553" y="398" type="curve" smooth="yes"/>
      <point x="553" y="406" type="line" smooth="yes"/>
      <point x="553" y="422"/>
      <point x="544" y="431"/>
      <point x="526" y="431" type="curve" smooth="yes"/>
      <point x="508" y="431"/>
      <point x="499" y="422"/>
      <point x="499" y="406" type="curve" smooth="yes"/>
      <point x="499" y="398" type="line" smooth="yes"/>
      <point x="499" y="382"/>
      <point x="508" y="373"/>
    </contour>
    <contour>
      <point x="560" y="245" type="curve" smooth="yes"/>
      <point x="578" y="245"/>
      <point x="587" y="254"/>
      <point x="587" y="270" type="curve" smooth="yes" name="hr06"/>
      <point x="587" y="278" type="line" smooth="yes"/>
      <point x="587" y="294"/>
      <point x="578" y="303"/>
      <point x="560" y="303" type="curve" smooth="yes"/>
      <point x="542" y="303"/>
      <point x="533" y="294"/>
      <point x="533" y="278" type="curve" smooth="yes"/>
      <point x="533" y="270" type="line" smooth="yes"/>
      <point x="533" y="254"/>
      <point x="542" y="245"/>
    </contour>
    <contour>
      <point x="526" y="117" type="curve" smooth="yes"/>
      <point x="544" y="117"/>
      <point x="553" y="126"/>
      <point x="553" y="142" type="curve" smooth="yes" name="hr07"/>
      <point x="553" y="150" type="line" smooth="yes"/>
      <point x="553" y="166"/>
      <point x="544" y="175"/>
      <point x="526" y="175" type="curve" smooth="yes"/>
      <point x="508" y="175"/>
      <point x="499" y="166"/>
      <point x="499" y="150" type="curve" smooth="yes"/>
      <point x="499" y="142" type="line" smooth="yes"/>
      <point x="499" y="126"/>
      <point x="508" y="117"/>
    </contour>
    <contour>
      <point x="431" y="22" type="curve" smooth="yes"/>
      <point x="449" y="22"/>
      <point x="458" y="31"/>
      <point x="458" y="47" type="curve" smooth="yes"/>
      <point x="458" y="55" type="line" smooth="yes"/>
      <point x="458" y="71"/>
      <point x="449" y="80"/>
      <point x="431" y="80" type="curve" smooth="yes"/>
      <point x="413" y="80"/>
      <point x="404" y="71"/>
      <point x="404" y="55" type="curve" smooth="yes"/>
      <point x="404" y="47" type="line" smooth="yes"/>
      <point x="404" y="31"/>
      <point x="413" y="22"/>
    </contour>
    <contour>
      <point x="303.0" y="-12.0" type="move" name="bottom"/>
    </contour>
    <contour>
      <point x="303.0" y="560.0" type="move" name="top"/>
    </contour>
  </outline>
</glyph>
<glyph name="arrowrightdowncorner" format="1">
  <advance width="746"/>
  <unicode hex="2B0E"/>
  <outline>
    <contour>
      <point x="541" y="101" type="line" name="hr00"/>
      <point x="728" y="288" type="line"/>
      <point x="713" y="303" type="line"/>
      <point x="602" y="192" type="line"/>
      <point x="552" y="138" type="line"/>
      <point x="550" y="139" type="line"/>
      <point x="551" y="247" type="line"/>
      <point x="551" y="575" type="line"/>
      <point x="18" y="575" type="line"/>
      <point x="18" y="555" type="line"/>
      <point x="531" y="555" type="line"/>
      <point x="531" y="247" type="line"/>
      <point x="532" y="139" type="line"/>
      <point x="530" y="138" type="line"/>
      <point x="480" y="192" type="line"/>
      <point x="369" y="303" type="line"/>
      <point x="354" y="288" type="line"/>
    </contour>
  </outline>
</glyph>
<glyph name="beeh-ar.fina" format="1">
  <advance width="921"/>
  <unicode hex="FB53"/>
  <outline>
    <component base="behDotless-ar.fina"/>
    <component base="twodotsverticalbelow-ar" xOffset="226" yOffset="-661"/>
    <contour>
      <point x="415.0" y="0.0" type="move" name="bottom"/>
    </contour>
    <contour>
      <point x="416.0" y="-12.0" type="move" name="ring"/>
    </contour>
    <contour>
      <point x="416.0" y="249.0" type="move" name="top"/>
    </contour>
  </outline>
</glyph>
<glyph name="beheh-ar.medi" format="1">
  <advance width="300"/>
  <unicode hex="FB5D"/>
  <outline>
    <component base="behDotless-ar.medi"/>
    <component base="fourdotsbelow-ar" xOffset="24" yOffset="-681"/>
    <contour>
      <point x="150.0" y="0.0" type="move" name="bottom"/>
    </contour>
    <contour>
      <point x="271.0" y="329.0" type="move" name="high"/>
    </contour>
    <contour>
      <point x="196.0" y="14.0" type="move" name="ring"/>
    </contour>
    <contour>
      <point x="150.0" y="329.0" type="move" name="top"/>
    </contour>
  </outline>
</glyph>
<glyph name="dyeh-ar.init" format="1">
  <advance width="591"/>
  <unicode hex="FB74"/>
  <outline>
    <component base="hah-ar.init"/>
    <component base="twodotsverticalbelow-ar" xOffset="83" yOffset="-661"/>
    <contour>
      <point x="272.0" y="0.0" type="move" name="bottom"/>
    </contour>
    <contour>
      <point x="221.0" y="369.0" type="move" name="top"/>
    </contour>
  </outline>
</glyph>
<glyph name="nyeh-ar.fina" format="1">
  <advance width="636"/>
  <unicode hex="FB77"/>
  <outline>
    <component base="hah-ar.fina"/>
    <component base="twodotshorizontalcenter-ar" xOffset="198" yOffset="-427"/>
    <contour>
      <point x="337.0" y="-304.0" type="move" name="bottom"/>
    </contour>
    <contour>
      <point x="324.0" y="11.0" type="move" name="center"/>
    </contour>
    <contour>
      <point x="305.0" y="404.0" type="move" name="top"/>
    </contour>
  </outline>
</glyph>
<glyph name="dahal-ar.fina" format="1">
  <advance width="531"/>
  <unicode hex="FB85"/>
  <outline>
    <component base="dal-ar.fina"/>
    <component base="twodotshorizontalabove-ar" xOffset="121" yOffset="190"/>
    <contour>
      <point x="257.0" y="0.0" type="move" name="bottom"/>
    </contour>
    <contour>
      <point x="242.0" y="0.0" type="move" name="ring"/>
    </contour>
    <contour>
      <point x="247.0" y="479.0" type="move" name="top"/>
    </contour>
  </outline>
</glyph>
<glyph name="keheh-ar.fina" format="1">
  <advance width="984"/>
  <unicode hex="FB8F"/>
  <outline>
    <contour>
      <point x="415" y="0" type="curve" smooth="yes" name="hr00"/>
      <point x="588" y="0" type="line" smooth="yes"/>
      <point x="690" y="0"/>
      <point x="749" y="44"/>
      <point x="749" y="120" type="curve" smooth="yes"/>
      <point x="749" y="130"/>
      <point x="747" y="141"/>
      <point x="745" y="146" type="curve"/>
      <point x="747" y="148" type="line"/>
      <point x="760" y="131" type="line" smooth="yes"/>
      <point x="834" y="34"/>
      <point x="889" y="0"/>
      <point x="974" y="0" type="curve"/>
      <point x="984" y="10" type="line"/>
      <point x="984" y="23" type="line"/>
      <point x="887" y="23"/>
      <point x="837" y="56"/>
      <point x="741" y="187" type="curve" smooth="yes"/>
      <point x="540" y="461" type="line"/>
      <point x="540" y="464" type="line"/>
      <point x="957" y="723" type="line"/>
      <point x="957" y="748" type="line"/>
      <point x="524" y="478" type="line"/>
      <point x="524" y="446" type="line"/>
      <point x="675" y="239" type="line" smooth="yes"/>
      <point x="715" y="185"/>
      <point x="731" y="155"/>
      <point x="731" y="120" type="curve" smooth="yes"/>
      <point x="731" y="58"/>
      <point x="678" y="23"/>
      <point x="588" y="23" type="curve" smooth="yes"/>
      <point x="415" y="23" type="line" smooth="yes"/>
      <point x="153" y="23"/>
      <point x="69" y="67"/>
      <point x="69" y="194" type="curve" smooth="yes"/>
      <point x="69" y="247"/>
      <point x="82" y="299"/>
      <point x="111" y="361" type="curve"/>
      <point x="93" y="369" type="line"/>
      <point x="64" y="306"/>
      <point x="50" y="251"/>
      <point x="50" y="194" type="curve" smooth="yes"/>
      <point x="50" y="50"/>
      <point x="144" y="0"/>
    </contour>
    <contour>
      <point x="420.0" y="0.0" type="move" name="bottom"/>
    </contour>
    <contour>
      <point x="524.0" y="552.0" type="move" name="kafbar"/>
    </contour>
    <contour>
      <point x="786.0" y="603.0" type="move" name="ring"/>
    </contour>
    <contour>
      <point x="626.0" y="626.0" type="move" name="top"/>
    </contour>
  </outline>
</glyph>
<glyph name="keheh-ar.init" format="1">
  <advance width="332"/>
  <unicode hex="FB90"/>
  <outline>
    <component base="kaf-ar.init"/>
    <contour>
      <point x="199.0" y="0.0" type="move" name="bottom"/>
    </contour>
    <contour>
      <point x="19.0" y="552.0" type="move" name="kafbar"/>
    </contour>
    <contour>
      <point x="281.0" y="603.0" type="move" name="ring"/>
    </contour>
    <contour>
      <point x="121.0" y="626.0" type="move" name="top"/>
    </contour>
  </outline>
</glyph>
<glyph name="gaf-ar.fina" format="1">
  <advance width="984"/>
  <unicode hex="FB93"/>
  <outline>
    <component base="keheh-ar.fina"/>
    <component base="comp.kafbar-ar" xOffset="506" yOffset="17"/>
    <contour>
      <point x="420.0" y="0.0" type="move" name="bottom"/>
    </contour>
    <contour>
      <point x="786.0" y="603.0" type="move" name="ring"/>
    </contour>
    <contour>
      <point x="626.0" y="626.0" type="move" name="top"/>
    </contour>
  </outline>
</glyph>
<glyph name="gaf-ar.init" format="1">
  <advance width="332"/>
  <unicode hex="FB94"/>
  <outline>
    <component base="kaf-ar.init"/>
    <component base="comp.kafbar-ar" xOffset="1" yOffset="17"/>
    <contour>
      <point x="199.0" y="0.0" type="move" name="bottom"/>
    </contour>
    <contour>
      <point x="281.0" y="603.0" type="move" name="ring"/>
    </contour>
    <contour>
      <point x="121.0" y="626.0" type="move" name="top"/>
    </contour>
  </outline>
</glyph>
<glyph name="gueh-ar.medi" format="1">
  <advance width="479"/>
  <unicode hex="FB99"/>
  <outline>
    <component base="kaf-ar.medi"/>
    <component base="comp.kafbar-ar" xOffset="1" yOffset="17"/>
    <component base="twodotsverticalbelow-ar" xOffset="10" yOffset="-661"/>
    <contour>
      <point x="199.0" y="0.0" type="move" name="bottom"/>
    </contour>
    <contour>
      <point x="281.0" y="603.0" type="move" name="ring"/>
    </contour>
    <contour>
      <point x="121.0" y="626.0" type="move" name="top"/>
    </contour>
  </outline>
</glyph>
<glyph name="noonghunna-ar.fina" format="1">
  <advance width="747"/>
  <unicode hex="FB9F"/>
  <outline>
    <contour>
      <point x="317" y="-240" type="curve" smooth="yes" name="hr00"/>
      <point x="486" y="-240"/>
      <point x="591" y="-151"/>
      <point x="602" y="0" type="curve"/>
      <point x="737" y="0" type="line"/>
      <point x="747" y="10" type="line"/>
      <point x="747" y="23" type="line"/>
      <point x="603" y="23" type="line"/>
      <point x="603" y="26" type="line" smooth="yes"/>
      <point x="603" y="70"/>
      <point x="598" y="116"/>
      <point x="585" y="205" type="curve" smooth="yes"/>
      <point x="573" y="288" type="line"/>
      <point x="553" y="285" type="line"/>
      <point x="565" y="202" type="line" smooth="yes"/>
      <point x="578" y="111"/>
      <point x="584" y="68"/>
      <point x="584" y="26" type="curve" smooth="yes"/>
      <point x="584" y="-127"/>
      <point x="488" y="-217"/>
      <point x="325" y="-217" type="curve" smooth="yes"/>
      <point x="309" y="-217" type="line" smooth="yes"/>
      <point x="158" y="-217"/>
      <point x="69" y="-133"/>
      <point x="69" y="10" type="curve" smooth="yes"/>
      <point x="69" y="66"/>
      <point x="85" y="133"/>
      <point x="115" y="202" type="curve"/>
      <point x="97" y="210" type="line"/>
      <point x="68" y="143"/>
      <point x="50" y="72"/>
      <point x="50" y="10" type="curve" smooth="yes"/>
      <point x="50" y="-147"/>
      <point x="149" y="-240"/>
    </contour>
    <contour>
      <point x="317.0" y="-240.0" type="move" name="bottom"/>
    </contour>
    <contour>
      <point x="337.0" y="169.0" type="move" name="top"/>
    </contour>
  </outline>
</glyph>
<glyph name="hehgoal-ar.fina" format="1">
  <advance width="535"/>
  <unicode hex="FBA7"/>
  <outline>
    <contour>
      <point x="525" y="0" type="curve" name="hr00"/>
      <point x="535" y="10" type="line"/>
      <point x="535" y="23" type="line"/>
      <point x="525" y="23" type="line" smooth="yes"/>
      <point x="468" y="23"/>
      <point x="442" y="45"/>
      <point x="424" y="104" type="curve" smooth="yes"/>
      <point x="396" y="194" type="line" smooth="yes"/>
      <point x="374" y="265"/>
      <point x="349" y="289"/>
      <point x="297" y="289" type="curve" smooth="yes"/>
      <point x="261" y="289"/>
      <point x="226" y="276"/>
      <point x="159" y="240" type="curve" smooth="yes"/>
      <point x="10" y="157" type="line"/>
      <point x="21" y="137" type="line"/>
      <point x="170" y="220" type="line" smooth="yes"/>
      <point x="231" y="254"/>
      <point x="264" y="266"/>
      <point x="297" y="266" type="curve" smooth="yes"/>
      <point x="338" y="266"/>
      <point x="358" y="246"/>
      <point x="376" y="189" type="curve" smooth="yes"/>
      <point x="404" y="99" type="line" smooth="yes"/>
      <point x="427" y="26"/>
      <point x="457" y="0"/>
    </contour>
    <contour>
      <point x="234.0" y="0.0" type="move" name="bottom"/>
    </contour>
    <contour>
      <point x="297.0" y="289.0" type="move" name="top"/>
    </contour>
  </outline>
</glyph>
<glyph name="hehgoal-ar.init" format="1">
  <advance width="455"/>
  <unicode hex="FBA8"/>
  <outline>
    <contour>
      <point x="-10" y="0" type="line"/>
      <point x="52" y="0"/>
      <point x="91" y="12"/>
      <point x="125" y="55" type="curve"/>
      <point x="157" y="35" type="line" smooth="yes"/>
      <point x="203" y="6"/>
      <point x="253" y="-12"/>
      <point x="295" y="-12" type="curve" smooth="yes" name="hr01"/>
      <point x="373" y="-12"/>
      <point x="410" y="34"/>
      <point x="410" y="134" type="curve" smooth="yes"/>
      <point x="410" y="159"/>
      <point x="407" y="198"/>
      <point x="400" y="238" type="curve"/>
      <point x="380" y="235" type="line"/>
      <point x="387" y="197"/>
      <point x="390" y="158"/>
      <point x="390" y="134" type="curve" smooth="yes"/>
      <point x="390" y="50"/>
      <point x="359" y="11"/>
      <point x="295" y="11" type="curve" smooth="yes"/>
      <point x="258" y="11"/>
      <point x="212" y="27"/>
      <point x="169" y="54" type="curve" smooth="yes"/>
      <point x="138" y="73" type="line"/>
      <point x="155" y="98"/>
      <point x="170" y="132"/>
      <point x="188" y="176" type="curve"/>
      <point x="171" y="184" type="line"/>
      <point x="120" y="53"/>
      <point x="88" y="23"/>
      <point x="10" y="23" type="curve" smooth="yes" name="hr02"/>
      <point x="0" y="23" type="line"/>
      <point x="-10" y="13" type="line"/>
    </contour>
    <contour>
      <point x="148" y="-240" type="curve"/>
      <point x="152" y="-240" type="line" smooth="yes"/>
      <point x="164" y="-240"/>
      <point x="173" y="-233"/>
      <point x="173" y="-218" type="curve" smooth="yes"/>
      <point x="173" y="-203"/>
      <point x="164" y="-196"/>
      <point x="152" y="-196" type="curve"/>
      <point x="152" y="-164"/>
      <point x="167" y="-125"/>
      <point x="193" y="-90" type="curve"/>
      <point x="174" y="-90" type="line"/>
      <point x="144" y="-127"/>
      <point x="127" y="-174"/>
      <point x="127" y="-215" type="curve" smooth="yes"/>
      <point x="127" y="-233"/>
      <point x="136" y="-240"/>
    </contour>
    <contour>
      <point x="150.0" y="-240.0" type="move" name="bottom"/>
    </contour>
    <contour>
      <point x="160.0" y="249.0" type="move" name="top"/>
    </contour>
  </outline>
</glyph>
<glyph name="hehgoal-ar.medi" format="1">
  <advance width="469"/>
  <unicode hex="FBA9"/>
  <outline>
    <contour>
      <point x="-10" y="0" type="line" name="hr00"/>
      <point x="87" y="0" type="line" smooth="yes"/>
      <point x="151" y="0"/>
      <point x="181" y="9"/>
      <point x="203" y="39" type="curve"/>
      <point x="207" y="36" type="line"/>
      <point x="188" y="-2"/>
      <point x="177" y="-35"/>
      <point x="177" y="-67" type="curve" smooth="yes"/>
      <point x="177" y="-109"/>
      <point x="195" y="-141"/>
      <point x="282" y="-270" type="curve"/>
      <point x="304" y="-270" type="line"/>
      <point x="417" y="0" type="line"/>
      <point x="459" y="0" type="line"/>
      <point x="469" y="10" type="line"/>
      <point x="469" y="23" type="line"/>
      <point x="425" y="23" type="line" smooth="yes"/>
      <point x="409" y="23"/>
      <point x="402" y="13"/>
      <point x="397" y="0" type="curve" smooth="yes"/>
      <point x="292" y="-246" type="line"/>
      <point x="215" y="-135"/>
      <point x="196" y="-105"/>
      <point x="196" y="-53" type="curve" smooth="yes"/>
      <point x="196" y="-11"/>
      <point x="222" y="47"/>
      <point x="254" y="111" type="curve" smooth="yes"/>
      <point x="294" y="190" type="line"/>
      <point x="279" y="198" type="line"/>
      <point x="238" y="121" type="line" smooth="yes"/>
      <point x="196" y="43"/>
      <point x="171" y="23"/>
      <point x="112" y="23" type="curve" smooth="yes"/>
      <point x="0" y="23" type="line"/>
      <point x="-10" y="13" type="line"/>
    </contour>
    <contour>
      <point x="71" y="-240" type="curve"/>
      <point x="75" y="-240" type="line" smooth="yes"/>
      <point x="87" y="-240"/>
      <point x="96" y="-233"/>
      <point x="96" y="-218" type="curve" smooth="yes"/>
      <point x="96" y="-203"/>
      <point x="87" y="-196"/>
      <point x="75" y="-196" type="curve"/>
      <point x="75" y="-164"/>
      <point x="90" y="-125"/>
      <point x="116" y="-90" type="curve"/>
      <point x="97" y="-90" type="line"/>
      <point x="67" y="-127"/>
      <point x="50" y="-174"/>
      <point x="50" y="-215" type="curve" smooth="yes"/>
      <point x="50" y="-233"/>
      <point x="59" y="-240"/>
    </contour>
  </outline>
</glyph>
<glyph name="hehDoachashmee-ar.medi" format="1">
  <advance width="374"/>
  <unicode hex="FBAD"/>
  <outline>
    <contour>
      <point x="211" y="-244" type="curve" smooth="yes"/>
      <point x="279" y="-244"/>
      <point x="318" y="-199"/>
      <point x="318" y="-123" type="curve" smooth="yes"/>
      <point x="318" y="0" type="line"/>
      <point x="364" y="0" type="line"/>
      <point x="374" y="10" type="line"/>
      <point x="374" y="23" type="line"/>
      <point x="317" y="23" type="line" smooth="yes"/>
      <point x="306" y="23"/>
      <point x="299" y="14"/>
      <point x="299" y="1" type="curve" smooth="yes"/>
      <point x="299" y="-123" type="line" smooth="yes"/>
      <point x="299" y="-185"/>
      <point x="267" y="-221"/>
      <point x="211" y="-221" type="curve" smooth="yes"/>
      <point x="154" y="-221"/>
      <point x="113" y="-183"/>
      <point x="70" y="-74" type="curve" smooth="yes"/>
      <point x="40" y="0" type="line"/>
      <point x="181" y="0" type="line" smooth="yes"/>
      <point x="278" y="0"/>
      <point x="335" y="69"/>
      <point x="335" y="183" type="curve" smooth="yes" name="hr01"/>
      <point x="335" y="272"/>
      <point x="297" y="325"/>
      <point x="233" y="325" type="curve" smooth="yes"/>
      <point x="166" y="325"/>
      <point x="125" y="279"/>
      <point x="50" y="95" type="curve" smooth="yes"/>
      <point x="20" y="23" type="line"/>
      <point x="0" y="23" type="line"/>
      <point x="-10" y="13" type="line"/>
      <point x="-10" y="0" type="line"/>
      <point x="20" y="0" type="line"/>
      <point x="52" y="-81" type="line" smooth="yes"/>
      <point x="100" y="-202"/>
      <point x="144" y="-244"/>
    </contour>
    <contour>
      <point x="67" y="87" type="line" smooth="yes"/>
      <point x="137" y="259"/>
      <point x="174" y="302"/>
      <point x="233" y="302" type="curve" smooth="yes"/>
      <point x="285" y="302"/>
      <point x="316" y="258"/>
      <point x="316" y="183" type="curve" smooth="yes"/>
      <point x="316" y="81"/>
      <point x="265" y="23"/>
      <point x="181" y="23" type="curve" smooth="yes"/>
      <point x="41" y="23" type="line"/>
    </contour>
    <contour>
      <point x="211.0" y="-244.0" type="move" name="bottom"/>
    </contour>
    <contour>
      <point x="233.0" y="325.0" type="move" name="top"/>
    </contour>
  </outline>
</glyph>
<glyph name="fourdotsbelow-ar" format="1">
  <advance width="0"/>
  <unicode hex="FBBB"/>
  <outline>
    <contour>
      <point x="187" y="416" type="curve" smooth="yes" name="hr00"/>
      <point x="191" y="416" type="line" smooth="yes"/>
      <point x="203" y="416"/>
      <point x="212" y="423"/>
      <point x="212" y="438" type="curve" smooth="yes"/>
      <point x="212" y="453"/>
      <point x="203" y="460"/>
      <point x="191" y="460" type="curve" smooth="yes"/>
      <point x="187" y="460" type="line" smooth="yes"/>
      <point x="175" y="460"/>
      <point x="166" y="453"/>
      <point x="166" y="438" type="curve" smooth="yes"/>
      <point x="166" y="423"/>
      <point x="175" y="416"/>
    </contour>
    <contour>
      <point x="187" y="540" type="curve" smooth="yes"/>
      <point x="191" y="540" type="line" smooth="yes"/>
      <point x="203" y="540"/>
      <point x="212" y="547"/>
      <point x="212" y="562" type="curve" smooth="yes"/>
      <point x="212" y="577"/>
      <point x="203" y="584"/>
      <point x="191" y="584" type="curve" smooth="yes"/>
      <point x="187" y="584" type="line" smooth="yes"/>
      <point x="175" y="584"/>
      <point x="166" y="577"/>
      <point x="166" y="562" type="curve" smooth="yes"/>
      <point x="166" y="547"/>
      <point x="175" y="540"/>
    </contour>
    <contour>
      <point x="61" y="416" type="curve" smooth="yes"/>
      <point x="65" y="416" type="line" smooth="yes"/>
      <point x="77" y="416"/>
      <point x="86" y="423"/>
      <point x="86" y="438" type="curve" smooth="yes"/>
      <point x="86" y="453"/>
      <point x="77" y="460"/>
      <point x="65" y="460" type="curve" smooth="yes"/>
      <point x="61" y="460" type="line" smooth="yes"/>
      <point x="49" y="460"/>
      <point x="40" y="453"/>
      <point x="40" y="438" type="curve" smooth="yes"/>
      <point x="40" y="423"/>
      <point x="49" y="416"/>
    </contour>
    <contour>
      <point x="61" y="540" type="curve" smooth="yes"/>
      <point x="65" y="540" type="line" smooth="yes"/>
      <point x="77" y="540"/>
      <point x="86" y="547"/>
      <point x="86" y="562" type="curve" smooth="yes"/>
      <point x="86" y="577"/>
      <point x="77" y="584"/>
      <point x="65" y="584" type="curve" smooth="yes"/>
      <point x="61" y="584" type="line" smooth="yes"/>
      <point x="49" y="584"/>
      <point x="40" y="577"/>
      <point x="40" y="562" type="curve" smooth="yes"/>
      <point x="40" y="547"/>
      <point x="49" y="540"/>
    </contour>
    <contour>
      <point x="126.0" y="681.0" type="move" name="_bottom"/>
    </contour>
    <contour>
      <point x="126.0" y="416.0" type="move" name="bottom"/>
    </contour>
  </outline>
</glyph>
<glyph name="ng-ar.fina" format="1">
  <advance width="921"/>
  <unicode hex="FBD4"/>
  <outline>
    <component base="kaf-ar.fina"/>
    <component base="threedotsupabove-ar" xOffset="298" yOffset="217"/>
    <contour>
      <point x="415.0" y="-12.0" type="move" name="bottom"/>
    </contour>
    <contour>
      <point x="424.0" y="506.0" type="move" name="top"/>
    </contour>
  </outline>
</glyph>
<glyph name="oe-ar.fina" format="1">
  <advance width="450"/>
  <unicode hex="FBDA"/>
  <outline>
    <component base="waw-ar.fina"/>
    <component base="vabove-ar" xOffset="129" yOffset="90"/>
    <contour>
      <point x="390.0" y="-118.0" type="move" name="bar"/>
    </contour>
    <contour>
      <point x="186.0" y="-240.0" type="move" name="bottom"/>
    </contour>
    <contour>
      <point x="92.0" y="-99.0" type="move" name="center"/>
    </contour>
    <contour>
      <point x="337.0" y="379.0" type="move" name="high"/>
    </contour>
    <contour>
      <point x="168.0" y="-81.0" type="move" name="ring"/>
    </contour>
    <contour>
      <point x="229.0" y="379.0" type="move" name="top"/>
    </contour>
  </outline>
</glyph>
<glyph name="beh_yeh-ar" format="1">
  <advance width="716"/>
  <unicode hex="FC0A"/>
  <outline>
    <component base="comp.behDotless_alefMaksura-ar"/>
    <component base="dotbelow-ar" xOffset="540" yOffset="-777"/>
    <component base="twodotshorizontalbelow-ar" xOffset="231" yOffset="-857"/>
    <contour>
      <point x="603.0" y="-160.0" type="move" name="bottom_1"/>
    </contour>
    <contour>
      <point x="357.0" y="-240.0" type="move" name="bottom_2"/>
    </contour>
    <contour>
      <point x="554.0" y="436.0" type="move" name="top_1"/>
    </contour>
    <contour>
      <point x="106.0" y="202.0" type="move" name="top_2"/>
    </contour>
  </outline>
</glyph>
<glyph name="teh_yeh-ar" format="1">
  <advance width="716"/>
  <unicode hex="FC10"/>
  <outline>
    <component base="comp.behDotless_alefMaksura-ar"/>
    <component base="twodotshorizontalabove-ar" xOffset="428" yOffset="147"/>
    <component base="twodotshorizontalbelow-ar" xOffset="231" yOffset="-857"/>
    <contour>
      <point x="603.0" y="-160.0" type="move" name="bottom_1"/>
    </contour>
    <contour>
      <point x="357.0" y="-240.0" type="move" name="bottom_2"/>
    </contour>
    <contour>
      <point x="554.0" y="436.0" type="move" name="top_1"/>
    </contour>
    <contour>
      <point x="106.0" y="202.0" type="move" name="top_2"/>
    </contour>
  </outline>
</glyph>
<glyph name="kaf_alefMaksura-ar" format="1">
  <advance width="730"/>
  <unicode hex="FC3D"/>
  <outline>
    <contour>
      <point x="497" y="80" type="line" name="hr00"/>
      <point x="560" y="95"/>
      <point x="589" y="130"/>
      <point x="589" y="182" type="curve" smooth="yes"/>
      <point x="589" y="238"/>
      <point x="558" y="289"/>
      <point x="491" y="365" type="curve" smooth="yes"/>
      <point x="363" y="510" type="line"/>
      <point x="363" y="513" type="line"/>
      <point x="770" y="773" type="line"/>
      <point x="770" y="798" type="line"/>
      <point x="347" y="528" type="line"/>
      <point x="347" y="496" type="line"/>
      <point x="475" y="351" type="line" smooth="yes"/>
      <point x="541" y="276"/>
      <point x="570" y="233"/>
      <point x="570" y="180" type="curve" smooth="yes"/>
      <point x="570" y="128"/>
      <point x="522" y="97"/>
      <point x="441" y="97" type="curve" smooth="yes"/>
      <point x="420" y="97" type="line"/>
      <point x="420" y="74" type="line"/>
      <point x="646" y="15" type="line"/>
      <point x="646" y="5" type="line" smooth="yes"/>
      <point x="646" y="-135"/>
      <point x="542" y="-217"/>
      <point x="365" y="-217" type="curve" smooth="yes"/>
      <point x="349" y="-217" type="line" smooth="yes"/>
      <point x="173" y="-217"/>
      <point x="69" y="-133"/>
      <point x="69" y="10" type="curve" smooth="yes"/>
      <point x="69" y="66"/>
      <point x="85" y="133"/>
      <point x="115" y="202" type="curve"/>
      <point x="97" y="210" type="line"/>
      <point x="68" y="143"/>
      <point x="50" y="72"/>
      <point x="50" y="10" type="curve" smooth="yes"/>
      <point x="50" y="-147"/>
      <point x="164" y="-240"/>
      <point x="357" y="-240" type="curve" smooth="yes"/>
      <point x="551" y="-240"/>
      <point x="666" y="-149"/>
      <point x="666" y="5" type="curve" smooth="yes"/>
      <point x="666" y="26"/>
      <point x="660" y="34"/>
      <point x="642" y="39" type="curve" smooth="yes"/>
      <point x="497" y="77" type="line"/>
    </contour>
    <contour>
      <point x="573.0" y="-240.0" type="move" name="bottom_1"/>
    </contour>
    <contour>
      <point x="332.0" y="-240.0" type="move" name="bottom_2"/>
    </contour>
    <contour>
      <point x="347.0" y="602.0" type="move" name="kafbar"/>
    </contour>
    <contour>
      <point x="347.0" y="666.0" type="move" name="top_1"/>
    </contour>
    <contour>
      <point x="106.0" y="202.0" type="move" name="top_2"/>
    </contour>
  </outline>
</glyph>
<glyph name="lam_meem-ar" format="1">
  <advance width="356"/>
  <unicode hex="FC42"/>
  <outline>
    <contour>
      <point x="60" y="-306" type="line" name="hr00"/>
      <point x="80" y="-306" type="line"/>
      <point x="80" y="-6" type="line" smooth="yes"/>
      <point x="80" y="72"/>
      <point x="114" y="107"/>
      <point x="187" y="107" type="curve" smooth="yes"/>
      <point x="217" y="107"/>
      <point x="253" y="98"/>
      <point x="303" y="77" type="curve" smooth="yes"/>
      <point x="357" y="54" type="line"/>
      <point x="366" y="76" type="line"/>
      <point x="312" y="98" type="line" smooth="yes"/>
      <point x="274" y="113"/>
      <point x="243" y="123"/>
      <point x="218" y="127" type="curve"/>
      <point x="218" y="740" type="line"/>
      <point x="198" y="740" type="line"/>
      <point x="198" y="130" type="line"/>
      <point x="187" y="130" type="line" smooth="yes"/>
      <point x="101" y="130"/>
      <point x="60" y="88"/>
      <point x="60" y="-4" type="curve" smooth="yes"/>
    </contour>
    <contour>
      <point x="267.0" y="0.0" type="move" name="bottom_1"/>
    </contour>
    <contour>
      <point x="70.0" y="-306.0" type="move" name="bottom_2"/>
    </contour>
    <contour>
      <point x="208.0" y="740.0" type="move" name="top_1"/>
    </contour>
    <contour>
      <point x="47.0" y="249.0" type="move" name="top_2"/>
    </contour>
  </outline>
</glyph>
<glyph name="lam_yeh-ar" format="1">
  <advance width="716"/>
  <unicode hex="FC44"/>
  <outline>
    <component base="lam_alefMaksura-ar"/>
    <component base="twodotshorizontalbelow-ar" xOffset="206" yOffset="-857"/>
    <contour>
      <point x="573.0" y="-240.0" type="move" name="bottom_1"/>
    </contour>
    <contour>
      <point x="332.0" y="-240.0" type="move" name="bottom_2"/>
    </contour>
    <contour>
      <point x="598.0" y="740.0" type="move" name="top_1"/>
    </contour>
    <contour>
      <point x="106.0" y="202.0" type="move" name="top_2"/>
    </contour>
  </outline>
</glyph>
<glyph name="noon_yeh-ar" format="1">
  <advance width="716"/>
  <unicode hex="FC50"/>
  <outline>
    <component base="comp.behDotless_alefMaksura-ar"/>
    <component base="dotabove-ar" xOffset="491" yOffset="147"/>
    <component base="twodotshorizontalbelow-ar" xOffset="231" yOffset="-857"/>
    <contour>
      <point x="603.0" y="-160.0" type="move" name="bottom_1"/>
    </contour>
    <contour>
      <point x="357.0" y="-240.0" type="move" name="bottom_2"/>
    </contour>
    <contour>
      <point x="554.0" y="436.0" type="move" name="top_1"/>
    </contour>
    <contour>
      <point x="106.0" y="202.0" type="move" name="top_2"/>
    </contour>
  </outline>
</glyph>
<glyph name="kaf_alefMaksura-ar.fina" format="1">
  <advance width="1058"/>
  <unicode hex="FC83"/>
  <outline>
    <contour>
      <point x="347" y="-240" type="curve" smooth="yes" name="hr00"/>
      <point x="545" y="-240"/>
      <point x="662" y="-150"/>
      <point x="666" y="0" type="curve"/>
      <point x="765" y="1"/>
      <point x="823" y="45"/>
      <point x="823" y="120" type="curve" smooth="yes"/>
      <point x="823" y="130"/>
      <point x="821" y="141"/>
      <point x="819" y="146" type="curve"/>
      <point x="821" y="148" type="line"/>
      <point x="834" y="131" type="line" smooth="yes"/>
      <point x="908" y="34"/>
      <point x="963" y="0"/>
      <point x="1048" y="0" type="curve"/>
      <point x="1058" y="10" type="line"/>
      <point x="1058" y="23" type="line"/>
      <point x="961" y="23"/>
      <point x="911" y="55"/>
      <point x="815" y="186" type="curve" smooth="yes"/>
      <point x="614" y="460" type="line"/>
      <point x="614" y="463" type="line"/>
      <point x="1031" y="723" type="line"/>
      <point x="1031" y="748" type="line"/>
      <point x="598" y="478" type="line"/>
      <point x="598" y="446" type="line"/>
      <point x="749" y="239" type="line" smooth="yes"/>
      <point x="789" y="185"/>
      <point x="805" y="155"/>
      <point x="805" y="120" type="curve" smooth="yes"/>
      <point x="805" y="58"/>
      <point x="752" y="23"/>
      <point x="662" y="23" type="curve" smooth="yes"/>
      <point x="641" y="23"/>
      <point x="603" y="28"/>
      <point x="573" y="32" type="curve" smooth="yes"/>
      <point x="414" y="54" type="line"/>
      <point x="414" y="31" type="line"/>
      <point x="646" y="0" type="line"/>
      <point x="642" y="-136"/>
      <point x="535" y="-217"/>
      <point x="355" y="-217" type="curve" smooth="yes"/>
      <point x="339" y="-217" type="line" smooth="yes"/>
      <point x="169" y="-217"/>
      <point x="69" y="-133"/>
      <point x="69" y="10" type="curve" smooth="yes"/>
      <point x="69" y="66"/>
      <point x="85" y="133"/>
      <point x="115" y="202" type="curve"/>
      <point x="97" y="210" type="line"/>
      <point x="68" y="143"/>
      <point x="50" y="72"/>
      <point x="50" y="10" type="curve" smooth="yes"/>
      <point x="50" y="-147"/>
      <point x="160" y="-240"/>
    </contour>
    <contour>
      <point x="778.0" y="0.0" type="move" name="bottom_1"/>
    </contour>
    <contour>
      <point x="332.0" y="-240.0" type="move" name="bottom_2"/>
    </contour>
    <contour>
      <point x="598.0" y="552.0" type="move" name="kafbar"/>
    </contour>
    <contour>
      <point x="598.0" y="602.0" type="move" name="top_1"/>
    </contour>
    <contour>
      <point x="106.0" y="202.0" type="move" name="top_2"/>
    </contour>
  </outline>
</glyph>
<glyph name="hehAlefabove-ar.init" format="1">
  <advance width="580"/>
  <unicode hex="FCD9"/>
  <outline>
    <component base="heh-ar.init"/>
    <component base="alefabove-ar" xOffset="183" yOffset="150"/>
    <contour>
      <point x="213.0" y="0.0" type="move" name="bottom"/>
    </contour>
    <contour>
      <point x="213.0" y="439.0" type="move" name="top"/>
    </contour>
  </outline>
</glyph>
<glyph name="dad_alefMaksura-ar.fina" format="1">
  <advance width="1485"/>
  <unicode hex="FD23"/>
  <outline>
    <component base="sad_alefMaksura-ar.fina"/>
    <component base="dotabove-ar" xOffset="1082" yOffset="86"/>
    <contour>
      <point x="1037.0" y="0.0" type="move" name="bottom_1"/>
    </contour>
    <contour>
      <point x="332.0" y="-306.0" type="move" name="bottom_2"/>
    </contour>
    <contour>
      <point x="1145.0" y="375.0" type="move" name="top_1"/>
    </contour>
    <contour>
      <point x="106.0" y="136.0" type="move" name="top_2"/>
    </contour>
  </outline>
</glyph>
<glyph name="alefFathatan-ar.fina" format="1">
  <advance width="260"/>
  <unicode hex="FD3C"/>
  <outline>
    <component base="alef-ar.fina.short"/>
    <component base="fathatan-ar" xOffset="3" yOffset="329"/>
    <contour>
      <point x="110.0" y="0.0" type="move" name="bottom"/>
    </contour>
    <contour>
      <point x="110.0" y="618.0" type="move" name="top"/>
    </contour>
  </outline>
</glyph>
<glyph name="parenleft-ar" format="1">
  <advance width="458"/>
  <unicode hex="FD3E"/>
  <outline>
    <contour>
      <point x="343" y="-138" type="curve" name="hr00"/>
      <point x="368" y="-138" type="line"/>
      <point x="287" y="-66"/>
      <point x="211" y="55"/>
      <point x="187" y="200" type="curve"/>
      <point x="268" y="203"/>
      <point x="310" y="243"/>
      <point x="310" y="310" type="curve" smooth="yes"/>
      <point x="310" y="376"/>
      <point x="268" y="416"/>
      <point x="187" y="420" type="curve"/>
      <point x="210" y="565"/>
      <point x="287" y="688"/>
      <point x="368" y="760" type="curve"/>
      <point x="343" y="760" type="line"/>
      <point x="268" y="690"/>
      <point x="194" y="572"/>
      <point x="168" y="420" type="curve"/>
      <point x="83" y="418"/>
      <point x="40" y="378"/>
      <point x="40" y="310" type="curve" smooth="yes"/>
      <point x="40" y="242"/>
      <point x="83" y="202"/>
      <point x="168" y="200" type="curve"/>
      <point x="193" y="49"/>
      <point x="268" y="-69"/>
    </contour>
    <contour>
      <point x="151" y="223" type="line" smooth="yes"/>
      <point x="96" y="223"/>
      <point x="60" y="254"/>
      <point x="60" y="310" type="curve" smooth="yes"/>
      <point x="60" y="366"/>
      <point x="96" y="397"/>
      <point x="151" y="397" type="curve" smooth="yes"/>
      <point x="199" y="397" type="line" smooth="yes"/>
      <point x="254" y="397"/>
      <point x="290" y="366"/>
      <point x="290" y="310" type="curve" smooth="yes"/>
      <point x="290" y="254"/>
      <point x="254" y="223"/>
      <point x="199" y="223" type="curve" smooth="yes"/>
    </contour>
  </outline>
</glyph>
<glyph name="parenright-ar" format="1">
  <advance width="458"/>
  <unicode hex="FD3F"/>
  <outline>
    <contour>
      <point x="115" y="-138" type="curve" name="hr00"/>
      <point x="90" y="-138" type="line"/>
      <point x="171" y="-66"/>
      <point x="247" y="55"/>
      <point x="271" y="200" type="curve"/>
      <point x="190" y="203"/>
      <point x="148" y="243"/>
      <point x="148" y="310" type="curve" smooth="yes"/>
      <point x="148" y="376"/>
      <point x="190" y="416"/>
      <point x="271" y="420" type="curve"/>
      <point x="248" y="565"/>
      <point x="171" y="688"/>
      <point x="90" y="760" type="curve"/>
      <point x="115" y="760" type="line"/>
      <point x="190" y="690"/>
      <point x="264" y="572"/>
      <point x="290" y="420" type="curve"/>
      <point x="375" y="418"/>
      <point x="418" y="378"/>
      <point x="418" y="310" type="curve" smooth="yes"/>
      <point x="418" y="242"/>
      <point x="375" y="202"/>
      <point x="290" y="200" type="curve"/>
      <point x="265" y="49"/>
      <point x="190" y="-69"/>
    </contour>
    <contour>
      <point x="307" y="223" type="line" smooth="yes"/>
      <point x="362" y="223"/>
      <point x="398" y="254"/>
      <point x="398" y="310" type="curve" smooth="yes"/>
      <point x="398" y="366"/>
      <point x="362" y="397"/>
      <point x="307" y="397" type="curve" smooth="yes"/>
      <point x="259" y="397" type="line" smooth="yes"/>
      <point x="204" y="397"/>
      <point x="168" y="366"/>
      <point x="168" y="310" type="curve" smooth="yes"/>
      <point x="168" y="254"/>
      <point x="204" y="223"/>
      <point x="259" y="223" type="curve" smooth="yes"/>
    </contour>
  </outline>
</glyph>
<glyph name="qaf_lam_yeh-ar" format="1">
  <advance width="999"/>
  <unicode hex="FDF1"/>
  <outline>
    <contour>
      <point x="92" y="-240" type="curve" name="hr00"/>
      <point x="619" y="-240" type="line"/>
      <point x="619" y="-217" type="line"/>
      <point x="80" y="-217" type="line"/>
      <point x="80" y="-84" type="line" smooth="yes"/>
      <point x="80" y="-26"/>
      <point x="110" y="0"/>
      <point x="177" y="0" type="curve" smooth="yes"/>
      <point x="249" y="0" type="line" smooth="yes"/>
      <point x="345" y="0"/>
      <point x="389" y="25"/>
      <point x="405" y="94" type="curve"/>
      <point x="408" y="94" type="line"/>
      <point x="423" y="30"/>
      <point x="468" y="0"/>
      <point x="549" y="0" type="curve" smooth="yes"/>
      <point x="729" y="0" type="line" smooth="yes"/>
      <point x="892" y="0"/>
      <point x="949" y="65"/>
      <point x="949" y="252" type="curve" smooth="yes"/>
      <point x="949" y="434"/>
      <point x="885" y="542"/>
      <point x="778" y="542" type="curve" smooth="yes"/>
      <point x="680" y="542"/>
      <point x="609" y="443"/>
      <point x="609" y="323" type="curve" smooth="yes"/>
      <point x="609" y="226"/>
      <point x="666" y="170"/>
      <point x="771" y="170" type="curve" smooth="yes"/>
      <point x="829" y="170"/>
      <point x="887" y="192"/>
      <point x="926" y="228" type="curve"/>
      <point x="929" y="228" type="line"/>
      <point x="928" y="76"/>
      <point x="876" y="23"/>
      <point x="729" y="23" type="curve" smooth="yes"/>
      <point x="539" y="23" type="line" smooth="yes"/>
      <point x="457" y="23"/>
      <point x="419" y="66"/>
      <point x="419" y="161" type="curve" smooth="yes"/>
      <point x="419" y="740" type="line"/>
      <point x="399" y="740" type="line"/>
      <point x="399" y="161" type="line" smooth="yes"/>
      <point x="399" y="58"/>
      <point x="365" y="23"/>
      <point x="263" y="23" type="curve" smooth="yes"/>
      <point x="178" y="23" type="line" smooth="yes"/>
      <point x="97" y="23"/>
      <point x="60" y="-11"/>
      <point x="60" y="-86" type="curve" smooth="yes"/>
      <point x="60" y="-205" type="line" smooth="yes"/>
      <point x="60" y="-225"/>
      <point x="66" y="-240"/>
    </contour>
    <contour>
      <point x="778" y="193" type="curve"/>
      <point x="764" y="193" type="line" smooth="yes"/>
      <point x="677" y="193"/>
      <point x="629" y="239"/>
      <point x="629" y="323" type="curve" smooth="yes"/>
      <point x="629" y="434"/>
      <point x="693" y="519"/>
      <point x="776" y="519" type="curve" smooth="yes"/>
      <point x="872" y="519"/>
      <point x="929" y="417"/>
      <point x="929" y="272" type="curve" smooth="yes"/>
      <point x="929" y="248" type="line"/>
      <point x="888" y="213"/>
      <point x="832" y="193"/>
    </contour>
    <contour>
      <point x="714" y="669" type="curve"/>
      <point x="718" y="669" type="line" smooth="yes"/>
      <point x="730" y="669"/>
      <point x="739" y="676"/>
      <point x="739" y="691" type="curve" smooth="yes"/>
      <point x="739" y="706"/>
      <point x="730" y="713"/>
      <point x="718" y="713" type="curve" smooth="yes"/>
      <point x="714" y="713" type="line" smooth="yes"/>
      <point x="702" y="713"/>
      <point x="693" y="706"/>
      <point x="693" y="691" type="curve" smooth="yes"/>
      <point x="693" y="676"/>
      <point x="702" y="669"/>
    </contour>
    <contour>
      <point x="840" y="669" type="curve"/>
      <point x="844" y="669" type="line" smooth="yes"/>
      <point x="856" y="669"/>
      <point x="865" y="676"/>
      <point x="865" y="691" type="curve" smooth="yes"/>
      <point x="865" y="706"/>
      <point x="856" y="713"/>
      <point x="844" y="713" type="curve" smooth="yes"/>
      <point x="840" y="713" type="line" smooth="yes"/>
      <point x="828" y="713"/>
      <point x="819" y="706"/>
      <point x="819" y="691" type="curve" smooth="yes"/>
      <point x="819" y="676"/>
      <point x="828" y="669"/>
    </contour>
  </outline>
</glyph>
<glyph name="allah-ar" format="1">
  <advance width="1141"/>
  <unicode hex="FDF2"/>
  <outline>
    <contour>
      <point x="422" y="0" type="curve" smooth="yes"/>
      <point x="502" y="0"/>
      <point x="543" y="25"/>
      <point x="558" y="94" type="curve"/>
      <point x="561" y="94" type="line"/>
      <point x="576" y="30"/>
      <point x="621" y="0"/>
      <point x="703" y="0" type="curve" smooth="yes"/>
      <point x="801" y="0"/>
      <point x="851" y="49"/>
      <point x="851" y="155" type="curve" smooth="yes"/>
      <point x="851" y="684" type="line"/>
      <point x="832" y="684" type="line"/>
      <point x="832" y="155" type="line" smooth="yes"/>
      <point x="832" y="64"/>
      <point x="793" y="23"/>
      <point x="718" y="23" type="curve" smooth="yes"/>
      <point x="688" y="23" type="line" smooth="yes"/>
      <point x="609" y="23"/>
      <point x="572" y="66"/>
      <point x="572" y="161" type="curve" smooth="yes"/>
      <point x="572" y="600" type="line"/>
      <point x="552" y="600" type="line"/>
      <point x="552" y="161" type="line" smooth="yes"/>
      <point x="552" y="58"/>
      <point x="521" y="23"/>
      <point x="437" y="23" type="curve" smooth="yes"/>
      <point x="407" y="23" type="line" smooth="yes"/>
      <point x="334" y="23"/>
      <point x="292" y="55"/>
      <point x="292" y="146" type="curve" smooth="yes"/>
      <point x="292" y="516" type="line"/>
      <point x="272" y="516" type="line"/>
      <point x="272" y="437" type="line"/>
      <point x="168" y="376" type="line" smooth="yes"/>
      <point x="67" y="316"/>
      <point x="30" y="283"/>
      <point x="30" y="211" type="curve" smooth="yes"/>
      <point x="30" y="139"/>
      <point x="74" y="97"/>
      <point x="149" y="97" type="curve" smooth="yes"/>
      <point x="212" y="97"/>
      <point x="257" y="123"/>
      <point x="271" y="169" type="curve"/>
      <point x="274" y="169" type="line"/>
      <point x="274" y="146" type="line" smooth="yes"/>
      <point x="274" y="38"/>
      <point x="313" y="0"/>
    </contour>
    <contour>
      <point x="146" y="120" type="curve" smooth="yes"/>
      <point x="85" y="120"/>
      <point x="49" y="154"/>
      <point x="49" y="211" type="curve" smooth="yes"/>
      <point x="49" y="276"/>
      <point x="87" y="309"/>
      <point x="190" y="368" type="curve" smooth="yes"/>
      <point x="272" y="414" type="line"/>
      <point x="272" y="239" type="line" smooth="yes"/>
      <point x="272" y="157"/>
      <point x="232" y="120"/>
    </contour>
    <contour>
      <point x="1031" y="0" type="line"/>
      <point x="1051" y="0" type="line"/>
      <point x="1051" y="740" type="line"/>
      <point x="1031" y="740" type="line"/>
    </contour>
    <contour>
      <point x="503" y="670" type="curve" smooth="yes"/>
      <point x="540" y="670"/>
      <point x="561" y="697"/>
      <point x="562" y="741" type="curve"/>
      <point x="564" y="741" type="line"/>
      <point x="569" y="717"/>
      <point x="587" y="700"/>
      <point x="614" y="700" type="curve" smooth="yes" name="hr01"/>
      <point x="654" y="700"/>
      <point x="673" y="724"/>
      <point x="673" y="773" type="curve" smooth="yes"/>
      <point x="673" y="792"/>
      <point x="668" y="816"/>
      <point x="661" y="836" type="curve"/>
      <point x="643" y="830" type="line"/>
      <point x="650" y="812"/>
      <point x="655" y="790"/>
      <point x="655" y="770" type="curve" smooth="yes"/>
      <point x="655" y="736"/>
      <point x="642" y="720"/>
      <point x="615" y="720" type="curve" smooth="yes"/>
      <point x="586" y="720"/>
      <point x="571" y="743"/>
      <point x="571" y="779" type="curve" smooth="yes"/>
      <point x="571" y="806" type="line"/>
      <point x="553" y="806" type="line"/>
      <point x="553" y="754" type="line" smooth="yes"/>
      <point x="553" y="714"/>
      <point x="536" y="690"/>
      <point x="506" y="690" type="curve" smooth="yes"/>
      <point x="483" y="690"/>
      <point x="469" y="707"/>
      <point x="469" y="735" type="curve" smooth="yes"/>
      <point x="469" y="779" type="line"/>
      <point x="451" y="779" type="line"/>
      <point x="451" y="735" type="line" smooth="yes"/>
      <point x="451" y="694"/>
      <point x="470" y="670"/>
    </contour>
    <contour>
      <point x="553" y="853" type="line"/>
      <point x="571" y="853" type="line"/>
      <point x="571" y="1014" type="line"/>
      <point x="553" y="1014" type="line"/>
    </contour>
  </outline>
</glyph>
<glyph name="mohammad-ar" format="1">
  <advance width="987"/>
  <unicode hex="FDF4"/>
  <outline>
    <contour>
      <point x="632" y="-104" type="curve" name="hr00"/>
      <point x="769" y="-104" type="line"/>
      <point x="769" y="-81" type="line"/>
      <point x="632" y="-81" type="line" smooth="yes"/>
      <point x="602" y="-81"/>
      <point x="576" y="-77"/>
      <point x="554" y="-70" type="curve"/>
      <point x="554" y="-68" type="line"/>
      <point x="977" y="219" type="line"/>
      <point x="977" y="259" type="line"/>
      <point x="522" y="259" type="line"/>
      <point x="522" y="262" type="line"/>
      <point x="930" y="578" type="line"/>
      <point x="930" y="612" type="line"/>
      <point x="852" y="658" type="line" smooth="yes"/>
      <point x="833" y="669"/>
      <point x="809" y="678"/>
      <point x="789" y="678" type="curve" smooth="yes"/>
      <point x="753" y="678"/>
      <point x="727" y="651"/>
      <point x="727" y="615" type="curve" smooth="yes"/>
      <point x="727" y="589"/>
      <point x="734" y="569"/>
      <point x="758" y="527" type="curve" smooth="yes"/>
      <point x="780" y="488" type="line"/>
      <point x="515" y="284" type="line" smooth="yes"/>
      <point x="503" y="275"/>
      <point x="500" y="269"/>
      <point x="500" y="253" type="curve" smooth="yes"/>
      <point x="500" y="236" type="line"/>
      <point x="960" y="236" type="line"/>
      <point x="960" y="233" type="line"/>
      <point x="545" y="-48" type="line" smooth="yes"/>
      <point x="538" y="-52"/>
      <point x="534" y="-56"/>
      <point x="532" y="-62" type="curve"/>
      <point x="487" y="-40"/>
      <point x="458" y="3"/>
      <point x="432" y="76" type="curve" smooth="yes"/>
      <point x="287" y="479" type="line"/>
      <point x="266" y="471" type="line"/>
      <point x="376" y="157" type="line" smooth="yes"/>
      <point x="388" y="123"/>
      <point x="390" y="110"/>
      <point x="390" y="89" type="curve" smooth="yes"/>
      <point x="390" y="48"/>
      <point x="358" y="23"/>
      <point x="305" y="23" type="curve" smooth="yes"/>
      <point x="59" y="23" type="line"/>
      <point x="59" y="106" type="line"/>
      <point x="40" y="106" type="line"/>
      <point x="40" y="29" type="line" smooth="yes"/>
      <point x="40" y="9"/>
      <point x="49" y="0"/>
      <point x="69" y="0" type="curve" smooth="yes"/>
      <point x="305" y="0" type="line" smooth="yes"/>
      <point x="367" y="0"/>
      <point x="403" y="33"/>
      <point x="403" y="89" type="curve"/>
      <point x="408" y="89" type="line"/>
      <point x="420" y="55" type="line" smooth="yes"/>
      <point x="462" y="-63"/>
      <point x="517" y="-104"/>
    </contour>
    <contour>
      <point x="747" y="615" type="curve" smooth="yes"/>
      <point x="747" y="638"/>
      <point x="764" y="655"/>
      <point x="788" y="655" type="curve" smooth="yes"/>
      <point x="806" y="655"/>
      <point x="829" y="647"/>
      <point x="848" y="635" type="curve" smooth="yes"/>
      <point x="914" y="595" type="line"/>
      <point x="914" y="592" type="line"/>
      <point x="798" y="502" type="line"/>
      <point x="776" y="539" type="line" smooth="yes"/>
      <point x="754" y="575"/>
      <point x="747" y="595"/>
    </contour>
    <contour>
      <point x="789.0" y="678.0" type="move" name="top_1"/>
    </contour>
    <contour>
      <point x="541.0" y="678.0" type="move" name="top_2"/>
    </contour>
    <contour>
      <point x="497.0" y="424.0" type="move" name="top_3"/>
    </contour>
    <contour>
      <point x="211.0" y="476.0" type="move" name="top_4"/>
    </contour>
  </outline>
</glyph>
<glyph name="basmalla-ar" format="1">
  <advance width="1201"/>
  <unicode hex="FDFA"/>
  <outline>
    <contour>
      <point x="804" y="154" type="curve" smooth="yes"/>
      <point x="841" y="154"/>
      <point x="857" y="169"/>
      <point x="862" y="202" type="curve"/>
      <point x="864" y="202" type="line"/>
      <point x="872" y="168"/>
      <point x="899" y="154"/>
      <point x="935" y="154" type="curve" smooth="yes"/>
      <point x="1014" y="154"/>
      <point x="1055" y="163"/>
      <point x="1111" y="178" type="curve" smooth="yes"/>
      <point x="1151" y="189" type="line"/>
      <point x="1147" y="207" type="line"/>
      <point x="1113" y="198" type="line" smooth="yes"/>
      <point x="1097" y="194"/>
      <point x="1072" y="187"/>
      <point x="1049" y="187" type="curve" smooth="yes"/>
      <point x="1002" y="187"/>
      <point x="975" y="227"/>
      <point x="975" y="267" type="curve" smooth="yes"/>
      <point x="975" y="313"/>
      <point x="1002" y="341"/>
      <point x="1045" y="341" type="curve" smooth="yes"/>
      <point x="1070" y="341"/>
      <point x="1090" y="334"/>
      <point x="1111" y="311" type="curve"/>
      <point x="1124" y="326" type="line"/>
      <point x="1104" y="349"/>
      <point x="1080" y="362"/>
      <point x="1047" y="362" type="curve" smooth="yes"/>
      <point x="995" y="362"/>
      <point x="958" y="325"/>
      <point x="958" y="268" type="curve" smooth="yes"/>
      <point x="958" y="225"/>
      <point x="980" y="192"/>
      <point x="1007" y="177" type="curve"/>
      <point x="1007" y="175" type="line"/>
      <point x="933" y="175" type="line" smooth="yes"/>
      <point x="891" y="175"/>
      <point x="878" y="200"/>
      <point x="878" y="236" type="curve" smooth="yes"/>
      <point x="878" y="406" type="line"/>
      <point x="860" y="406" type="line"/>
      <point x="860" y="236" type="line" smooth="yes"/>
      <point x="860" y="198"/>
      <point x="851" y="175"/>
      <point x="807" y="175" type="curve" smooth="yes"/>
      <point x="776" y="175"/>
      <point x="760" y="189"/>
      <point x="760" y="219" type="curve" smooth="yes"/>
      <point x="760" y="228" type="line"/>
      <point x="380" y="228" type="line"/>
      <point x="380" y="348" type="line"/>
      <point x="361" y="348" type="line"/>
      <point x="361" y="228" type="line"/>
      <point x="246" y="228" type="line" smooth="yes"/>
      <point x="207" y="228"/>
      <point x="193" y="244"/>
      <point x="193" y="291" type="curve" smooth="yes"/>
      <point x="193" y="465" type="line"/>
      <point x="175" y="465" type="line"/>
      <point x="175" y="430" type="line"/>
      <point x="124" y="400" type="line" smooth="yes"/>
      <point x="70" y="368"/>
      <point x="50" y="349"/>
      <point x="50" y="312" type="curve" smooth="yes"/>
      <point x="50" y="274"/>
      <point x="74" y="252"/>
      <point x="113" y="252" type="curve" smooth="yes"/>
      <point x="144" y="252"/>
      <point x="167" y="266"/>
      <point x="175" y="290" type="curve"/>
      <point x="177" y="290" type="line"/>
      <point x="177" y="228"/>
      <point x="195" y="207"/>
      <point x="247" y="207" type="curve" smooth="yes"/>
      <point x="361" y="207" type="line"/>
      <point x="361" y="60" type="line" smooth="yes"/>
      <point x="361" y="16"/>
      <point x="349" y="-4"/>
      <point x="319" y="-4" type="curve" smooth="yes"/>
      <point x="296" y="-4"/>
      <point x="285" y="11"/>
      <point x="276" y="45" type="curve" smooth="yes"/>
      <point x="244" y="160" type="line" name="hr01"/>
      <point x="224" y="160" type="line"/>
      <point x="149" y="126" type="line" smooth="yes"/>
      <point x="70" y="91"/>
      <point x="50" y="62"/>
      <point x="50" y="-18" type="curve" smooth="yes"/>
      <point x="50" y="-38" type="line" smooth="yes"/>
      <point x="50" y="-114"/>
      <point x="94" y="-152"/>
      <point x="184" y="-152" type="curve" smooth="yes"/>
      <point x="506" y="-152" type="line"/>
      <point x="506" y="-131" type="line"/>
      <point x="184" y="-131" type="line" smooth="yes"/>
      <point x="107" y="-131"/>
      <point x="68" y="-101"/>
      <point x="68" y="-38" type="curve" smooth="yes" name="hr02"/>
      <point x="68" y="-18" type="line" smooth="yes"/>
      <point x="68" y="45"/>
      <point x="82" y="69"/>
      <point x="139" y="101" type="curve"/>
      <point x="140" y="99" type="line"/>
      <point x="121" y="82"/>
      <point x="115" y="64"/>
      <point x="115" y="45" type="curve" smooth="yes"/>
      <point x="115" y="1"/>
      <point x="148" y="-25"/>
      <point x="204" y="-25" type="curve" smooth="yes"/>
      <point x="253" y="-25" type="line"/>
      <point x="253" y="-4" type="line"/>
      <point x="205" y="-4" type="line" smooth="yes"/>
      <point x="157" y="-4"/>
      <point x="131" y="16"/>
      <point x="131" y="50" type="curve" smooth="yes"/>
      <point x="131" y="81"/>
      <point x="147" y="105"/>
      <point x="197" y="126" type="curve" smooth="yes"/>
      <point x="230" y="140" type="line"/>
      <point x="258" y="37" type="line" smooth="yes"/>
      <point x="270" y="-8"/>
      <point x="286" y="-25"/>
      <point x="316" y="-25" type="curve" smooth="yes"/>
      <point x="342" y="-25"/>
      <point x="359" y="-10"/>
      <point x="365" y="23" type="curve"/>
      <point x="367" y="23" type="line"/>
      <point x="374" y="-9"/>
      <point x="397" y="-25"/>
      <point x="440" y="-25" type="curve" smooth="yes"/>
      <point x="910" y="-25" type="line"/>
      <point x="910" y="-65" type="line"/>
      <point x="928" y="-65" type="line"/>
      <point x="928" y="-27" type="line" smooth="yes"/>
      <point x="928" y="-12"/>
      <point x="919" y="-4"/>
      <point x="905" y="-4" type="curve" smooth="yes"/>
      <point x="434" y="-4" type="line" smooth="yes"/>
      <point x="394" y="-4"/>
      <point x="380" y="20"/>
      <point x="380" y="60" type="curve" smooth="yes"/>
      <point x="380" y="207" type="line"/>
      <point x="744" y="207" type="line"/>
      <point x="747" y="171"/>
      <point x="766" y="154"/>
    </contour>
    <contour>
      <point x="454" y="315" type="curve"/>
      <point x="760" y="315" type="line"/>
      <point x="760" y="336" type="line"/>
      <point x="447" y="336" type="line"/>
      <point x="447" y="366"/>
      <point x="462" y="383"/>
      <point x="494" y="390" type="curve" smooth="yes"/>
      <point x="600" y="414" type="line" smooth="yes"/>
      <point x="640" y="423"/>
      <point x="666" y="434"/>
      <point x="674" y="471" type="curve"/>
      <point x="676" y="471" type="line"/>
      <point x="683" y="439"/>
      <point x="708" y="423"/>
      <point x="750" y="423" type="curve" smooth="yes"/>
      <point x="790" y="423"/>
      <point x="812" y="436"/>
      <point x="819" y="471" type="curve"/>
      <point x="821" y="471" type="line"/>
      <point x="828" y="439"/>
      <point x="850" y="423"/>
      <point x="891" y="423" type="curve" smooth="yes"/>
      <point x="1031" y="423" type="line" smooth="yes"/>
      <point x="1107" y="423"/>
      <point x="1148" y="456"/>
      <point x="1148" y="517" type="curve" smooth="yes"/>
      <point x="1148" y="579"/>
      <point x="1114" y="616"/>
      <point x="1056" y="616" type="curve" smooth="yes"/>
      <point x="995" y="616"/>
      <point x="941" y="579"/>
      <point x="888" y="490" type="curve" smooth="yes"/>
      <point x="863" y="448" type="line"/>
      <point x="844" y="455"/>
      <point x="834" y="472"/>
      <point x="834" y="505" type="curve" smooth="yes"/>
      <point x="834" y="548" type="line"/>
      <point x="816" y="548" type="line"/>
      <point x="816" y="505" type="line" smooth="yes"/>
      <point x="816" y="457"/>
      <point x="797" y="444"/>
      <point x="763" y="444" type="curve" smooth="yes"/>
      <point x="744" y="444" type="line" smooth="yes"/>
      <point x="703" y="444"/>
      <point x="689" y="468"/>
      <point x="689" y="505" type="curve" smooth="yes"/>
      <point x="689" y="793" type="line"/>
      <point x="671" y="793" type="line"/>
      <point x="671" y="505" type="line" smooth="yes"/>
      <point x="671" y="462"/>
      <point x="659" y="448"/>
      <point x="605" y="436" type="curve" smooth="yes"/>
      <point x="495" y="411" type="line" smooth="yes"/>
      <point x="450" y="401"/>
      <point x="429" y="379"/>
      <point x="429" y="340" type="curve" smooth="yes"/>
      <point x="429" y="326"/>
      <point x="437" y="315"/>
    </contour>
    <contour>
      <point x="253" y="485" type="curve" smooth="yes"/>
      <point x="292" y="485"/>
      <point x="312" y="498"/>
      <point x="319" y="532" type="curve"/>
      <point x="321" y="532" type="line"/>
      <point x="330" y="498"/>
      <point x="356" y="485"/>
      <point x="397" y="485" type="curve" smooth="yes"/>
      <point x="448" y="485"/>
      <point x="476" y="512"/>
      <point x="476" y="566" type="curve" smooth="yes"/>
      <point x="476" y="793" type="line"/>
      <point x="458" y="793" type="line"/>
      <point x="458" y="566" type="line" smooth="yes"/>
      <point x="458" y="519"/>
      <point x="435" y="506"/>
      <point x="405" y="506" type="curve" smooth="yes"/>
      <point x="388" y="506" type="line" smooth="yes"/>
      <point x="348" y="506"/>
      <point x="334" y="529"/>
      <point x="334" y="567" type="curve" smooth="yes" name="hr04"/>
      <point x="334" y="701" type="line"/>
      <point x="317" y="701" type="line"/>
      <point x="317" y="567" type="line" smooth="yes"/>
      <point x="317" y="518"/>
      <point x="297" y="506"/>
      <point x="262" y="506" type="curve" smooth="yes"/>
      <point x="246" y="506" type="line" smooth="yes"/>
      <point x="206" y="506"/>
      <point x="193" y="525"/>
      <point x="193" y="569" type="curve" smooth="yes"/>
      <point x="193" y="743" type="line"/>
      <point x="175" y="743" type="line"/>
      <point x="175" y="707" type="line"/>
      <point x="124" y="677" type="line" smooth="yes"/>
      <point x="70" y="645"/>
      <point x="50" y="626"/>
      <point x="50" y="590" type="curve" smooth="yes"/>
      <point x="50" y="552"/>
      <point x="74" y="530"/>
      <point x="113" y="530" type="curve" smooth="yes"/>
      <point x="144" y="530"/>
      <point x="167" y="543"/>
      <point x="175" y="568" type="curve"/>
      <point x="177" y="568" type="line"/>
      <point x="177" y="506"/>
      <point x="197" y="485"/>
    </contour>
    <contour>
      <point x="910" y="-152" type="line"/>
      <point x="996" y="-152" type="line" smooth="yes"/>
      <point x="1088" y="-152"/>
      <point x="1144" y="-118"/>
      <point x="1144" y="-25" type="curve" smooth="yes"/>
      <point x="1144" y="65"/>
      <point x="1111" y="118"/>
      <point x="1057" y="118" type="curve" smooth="yes"/>
      <point x="1007" y="118"/>
      <point x="970" y="71"/>
      <point x="970" y="12" type="curve" smooth="yes"/>
      <point x="970" y="-34"/>
      <point x="1000" y="-62"/>
      <point x="1052" y="-62" type="curve" smooth="yes"/>
      <point x="1082" y="-62"/>
      <point x="1109" y="-51"/>
      <point x="1125" y="-35" type="curve"/>
      <point x="1127" y="-35" type="line"/>
      <point x="1127" y="-40" type="line" smooth="yes"/>
      <point x="1127" y="-100"/>
      <point x="1086" y="-131"/>
      <point x="996" y="-131" type="curve" smooth="yes"/>
      <point x="910" y="-131" type="line"/>
    </contour>
    <contour>
      <point x="880" y="444" type="line"/>
      <point x="880" y="446" type="line"/>
      <point x="902" y="483" type="line" smooth="yes"/>
      <point x="950" y="564"/>
      <point x="995" y="595"/>
      <point x="1047" y="595" type="curve" smooth="yes"/>
      <point x="1058" y="595" type="line" smooth="yes"/>
      <point x="1104" y="595"/>
      <point x="1131" y="566"/>
      <point x="1131" y="516" type="curve" smooth="yes" name="hr05"/>
      <point x="1131" y="469"/>
      <point x="1094" y="444"/>
      <point x="1031" y="444" type="curve" smooth="yes"/>
    </contour>
    <contour>
      <point x="1050" y="-41" type="line" smooth="yes"/>
      <point x="1010" y="-41"/>
      <point x="988" y="-22"/>
      <point x="988" y="14" type="curve" smooth="yes"/>
      <point x="988" y="61"/>
      <point x="1016" y="97"/>
      <point x="1055" y="97" type="curve" smooth="yes"/>
      <point x="1099" y="97"/>
      <point x="1127" y="54"/>
      <point x="1127" y="-19" type="curve" name="hr06"/>
      <point x="1111" y="-32"/>
      <point x="1088" y="-41"/>
      <point x="1058" y="-41" type="curve" smooth="yes"/>
    </contour>
    <contour>
      <point x="114" y="550" type="curve" smooth="yes"/>
      <point x="84" y="550"/>
      <point x="67" y="565"/>
      <point x="67" y="592" type="curve" smooth="yes"/>
      <point x="67" y="620"/>
      <point x="83" y="636"/>
      <point x="131" y="663" type="curve" smooth="yes"/>
      <point x="175" y="688" type="line"/>
      <point x="175" y="604" type="line" smooth="yes"/>
      <point x="175" y="570"/>
      <point x="160" y="550"/>
    </contour>
    <contour>
      <point x="114" y="273" type="curve" smooth="yes"/>
      <point x="83" y="273"/>
      <point x="67" y="288"/>
      <point x="67" y="314" type="curve" smooth="yes"/>
      <point x="67" y="342"/>
      <point x="85" y="359"/>
      <point x="131" y="385" type="curve" smooth="yes"/>
      <point x="175" y="410" type="line"/>
      <point x="175" y="326" type="line" smooth="yes"/>
      <point x="175" y="294"/>
      <point x="162" y="273"/>
    </contour>
    <contour>
      <point x="731" y="625" type="line"/>
      <point x="1148" y="737" type="line" name="hr07"/>
      <point x="1144" y="752" type="line" name="hr08"/>
      <point x="727" y="639" type="line"/>
    </contour>
    <contour>
      <point x="812" y="-150" type="curve" smooth="yes"/>
      <point x="823" y="-150"/>
      <point x="830" y="-144"/>
      <point x="832" y="-132" type="curve"/>
      <point x="834" y="-132" type="line"/>
      <point x="837" y="-144"/>
      <point x="842" y="-150"/>
      <point x="855" y="-150" type="curve" smooth="yes"/>
      <point x="871" y="-150"/>
      <point x="879" y="-140"/>
      <point x="879" y="-121" type="curve" smooth="yes"/>
      <point x="879" y="-114"/>
      <point x="878" y="-105"/>
      <point x="875" y="-94" type="curve"/>
      <point x="862" y="-96" type="line"/>
      <point x="865" y="-108"/>
      <point x="866" y="-114"/>
      <point x="866" y="-122" type="curve" smooth="yes"/>
      <point x="866" y="-131"/>
      <point x="862" y="-135"/>
      <point x="855" y="-135" type="curve" smooth="yes"/>
      <point x="847" y="-135"/>
      <point x="843" y="-129"/>
      <point x="843" y="-118" type="curve" smooth="yes" name="hr09"/>
      <point x="843" y="-106" type="line"/>
      <point x="831" y="-106" type="line"/>
      <point x="831" y="-118" type="line" smooth="yes"/>
      <point x="831" y="-128"/>
      <point x="827" y="-134"/>
      <point x="815" y="-134" type="curve" smooth="yes"/>
      <point x="806" y="-134"/>
      <point x="801" y="-129"/>
      <point x="801" y="-118" type="curve" smooth="yes"/>
      <point x="801" y="-106" type="line"/>
      <point x="789" y="-106" type="line"/>
      <point x="789" y="-118" type="line" smooth="yes"/>
      <point x="789" y="-130"/>
      <point x="782" y="-133"/>
      <point x="762" y="-133" type="curve" smooth="yes"/>
      <point x="546" y="-133" type="line"/>
      <point x="546" y="-149" type="line"/>
      <point x="762" y="-149" type="line" smooth="yes"/>
      <point x="781" y="-149"/>
      <point x="788" y="-143"/>
      <point x="790" y="-132" type="curve"/>
      <point x="792" y="-132" type="line" name="hr10"/>
      <point x="794" y="-144"/>
      <point x="801" y="-150"/>
    </contour>
    <contour>
      <point x="563" y="494" type="line"/>
      <point x="581" y="494" type="line"/>
      <point x="581" y="793" type="line"/>
      <point x="563" y="793" type="line"/>
    </contour>
    <contour>
      <point x="579" y="28" type="line"/>
      <point x="928" y="109" type="line"/>
      <point x="925" y="123" type="line"/>
      <point x="576" y="42" type="line"/>
    </contour>
    <contour>
      <point x="768" y="734" type="curve" smooth="yes"/>
      <point x="787" y="734"/>
      <point x="797" y="748"/>
      <point x="798" y="771" type="curve"/>
      <point x="799" y="771" type="line"/>
      <point x="802" y="758"/>
      <point x="812" y="749"/>
      <point x="825" y="749" type="curve" smooth="yes" name="hr11"/>
      <point x="846" y="749"/>
      <point x="857" y="764"/>
      <point x="857" y="790" type="curve" smooth="yes"/>
      <point x="857" y="798"/>
      <point x="855" y="812"/>
      <point x="851" y="823" type="curve"/>
      <point x="837" y="819" type="line"/>
      <point x="841" y="809"/>
      <point x="843" y="797"/>
      <point x="843" y="789" type="curve" smooth="yes"/>
      <point x="843" y="774"/>
      <point x="837" y="766"/>
      <point x="825" y="766" type="curve" smooth="yes"/>
      <point x="813" y="766"/>
      <point x="806" y="775"/>
      <point x="806" y="792" type="curve" smooth="yes"/>
      <point x="806" y="807" type="line"/>
      <point x="792" y="807" type="line"/>
      <point x="792" y="780" type="line" smooth="yes"/>
      <point x="792" y="762"/>
      <point x="785" y="751"/>
      <point x="772" y="751" type="curve" smooth="yes" name="hr12"/>
      <point x="762" y="751"/>
      <point x="755" y="758"/>
      <point x="755" y="771" type="curve" smooth="yes"/>
      <point x="755" y="793" type="line"/>
      <point x="741" y="793" type="line"/>
      <point x="741" y="768" type="line" smooth="yes"/>
      <point x="741" y="748"/>
      <point x="751" y="734"/>
    </contour>
    <contour>
      <point x="294" y="734" type="curve" smooth="yes"/>
      <point x="314" y="734"/>
      <point x="324" y="751"/>
      <point x="324" y="771" type="curve"/>
      <point x="325" y="771" type="line"/>
      <point x="328" y="758"/>
      <point x="339" y="749"/>
      <point x="351" y="749" type="curve" smooth="yes" name="hr13"/>
      <point x="372" y="749"/>
      <point x="383" y="764"/>
      <point x="383" y="790" type="curve" smooth="yes"/>
      <point x="383" y="800"/>
      <point x="381" y="812"/>
      <point x="377" y="823" type="curve"/>
      <point x="364" y="819" type="line"/>
      <point x="367" y="809"/>
      <point x="370" y="798"/>
      <point x="370" y="789" type="curve" smooth="yes"/>
      <point x="370" y="774"/>
      <point x="363" y="766"/>
      <point x="351" y="766" type="curve" smooth="yes"/>
      <point x="339" y="766"/>
      <point x="332" y="776"/>
      <point x="332" y="792" type="curve" smooth="yes"/>
      <point x="332" y="807" type="line"/>
      <point x="319" y="807" type="line"/>
      <point x="319" y="780" type="line" smooth="yes"/>
      <point x="319" y="761"/>
      <point x="311" y="751"/>
      <point x="298" y="751" type="curve" smooth="yes" name="hr14"/>
      <point x="288" y="751"/>
      <point x="281" y="758"/>
      <point x="281" y="771" type="curve" smooth="yes"/>
      <point x="281" y="793" type="line"/>
      <point x="268" y="793" type="line"/>
      <point x="268" y="768" type="line" smooth="yes"/>
      <point x="268" y="746"/>
      <point x="278" y="734"/>
    </contour>
    <contour>
      <point x="294" y="358" type="curve" smooth="yes"/>
      <point x="314" y="358"/>
      <point x="324" y="375"/>
      <point x="324" y="395" type="curve"/>
      <point x="325" y="395" type="line"/>
      <point x="328" y="382"/>
      <point x="339" y="373"/>
      <point x="351" y="373" type="curve" smooth="yes" name="hr15"/>
      <point x="372" y="373"/>
      <point x="383" y="387"/>
      <point x="383" y="414" type="curve" smooth="yes"/>
      <point x="383" y="423"/>
      <point x="381" y="436"/>
      <point x="377" y="447" type="curve"/>
      <point x="364" y="443" type="line"/>
      <point x="367" y="433"/>
      <point x="370" y="422"/>
      <point x="370" y="413" type="curve" smooth="yes"/>
      <point x="370" y="397"/>
      <point x="363" y="390"/>
      <point x="351" y="390" type="curve" smooth="yes"/>
      <point x="339" y="390"/>
      <point x="332" y="399"/>
      <point x="332" y="416" type="curve" smooth="yes"/>
      <point x="332" y="431" type="line"/>
      <point x="319" y="431" type="line"/>
      <point x="319" y="404" type="line" smooth="yes"/>
      <point x="319" y="385"/>
      <point x="311" y="375"/>
      <point x="298" y="375" type="curve" smooth="yes" name="hr16"/>
      <point x="288" y="375"/>
      <point x="281" y="382"/>
      <point x="281" y="394" type="curve" smooth="yes"/>
      <point x="281" y="417" type="line"/>
      <point x="268" y="417" type="line"/>
      <point x="268" y="392" type="line" smooth="yes"/>
      <point x="268" y="370"/>
      <point x="278" y="358"/>
    </contour>
    <contour>
      <point x="524" y="87" type="curve"/>
      <point x="527" y="87" type="line" smooth="yes"/>
      <point x="535" y="87"/>
      <point x="541" y="92"/>
      <point x="541" y="102" type="curve" smooth="yes"/>
      <point x="541" y="113"/>
      <point x="535" y="118"/>
      <point x="527" y="118" type="curve" smooth="yes"/>
      <point x="524" y="118" type="line" smooth="yes"/>
      <point x="516" y="118"/>
      <point x="510" y="112"/>
      <point x="510" y="102" type="curve" smooth="yes"/>
      <point x="510" y="93"/>
      <point x="516" y="87"/>
    </contour>
    <contour>
      <point x="454" y="87" type="curve"/>
      <point x="457" y="87" type="line" smooth="yes"/>
      <point x="465" y="87"/>
      <point x="471" y="92"/>
      <point x="471" y="102" type="curve" smooth="yes"/>
      <point x="471" y="113"/>
      <point x="465" y="118"/>
      <point x="457" y="118" type="curve" smooth="yes"/>
      <point x="454" y="118" type="line" smooth="yes"/>
      <point x="446" y="118"/>
      <point x="440" y="112"/>
      <point x="440" y="102" type="curve" smooth="yes"/>
      <point x="440" y="92"/>
      <point x="447" y="87"/>
    </contour>
  </outline>
</glyph>
<glyph name="jallajalalouhou-ar" format="1">
  <advance width="2498"/>
  <unicode hex="FDFB"/>
  <outline>
    <contour>
      <point x="1532" y="-240" type="curve" smooth="yes" name="hr00"/>
      <point x="1696" y="-240"/>
      <point x="1795" y="-150"/>
      <point x="1798" y="0" type="curve"/>
      <point x="1917" y="0" type="line" smooth="yes"/>
      <point x="2033" y="0"/>
      <point x="2099" y="21"/>
      <point x="2242" y="117" type="curve" smooth="yes"/>
      <point x="2426" y="241" type="line"/>
      <point x="2488" y="241" type="line"/>
      <point x="2488" y="264" type="line"/>
      <point x="2452" y="264" type="line" smooth="yes"/>
      <point x="2421" y="264"/>
      <point x="2372" y="271"/>
      <point x="2320" y="285" type="curve" smooth="yes"/>
      <point x="2004" y="369" type="line" smooth="yes"/>
      <point x="1983" y="375"/>
      <point x="1976" y="375"/>
      <point x="1972" y="375" type="curve" smooth="yes"/>
      <point x="1957" y="375"/>
      <point x="1948" y="364"/>
      <point x="1948" y="346" type="curve" smooth="yes"/>
      <point x="1948" y="269" type="line"/>
      <point x="1967" y="269" type="line"/>
      <point x="1967" y="355" type="line"/>
      <point x="2265" y="276" type="line"/>
      <point x="2394" y="244" type="line"/>
      <point x="2394" y="241" type="line"/>
      <point x="2232" y="134" type="line" smooth="yes"/>
      <point x="2094" y="43"/>
      <point x="2030" y="23"/>
      <point x="1917" y="23" type="curve" smooth="yes"/>
      <point x="1798" y="23" type="line"/>
      <point x="1798" y="740" type="line"/>
      <point x="1778" y="740" type="line"/>
      <point x="1778" y="6" type="line" smooth="yes"/>
      <point x="1778" y="-134"/>
      <point x="1689" y="-217"/>
      <point x="1540" y="-217" type="curve" smooth="yes"/>
      <point x="1524" y="-217" type="line" smooth="yes"/>
      <point x="1386" y="-217"/>
      <point x="1304" y="-133"/>
      <point x="1304" y="10" type="curve" smooth="yes"/>
      <point x="1304" y="42" type="line"/>
      <point x="1338" y="60"/>
      <point x="1377" y="84"/>
      <point x="1426" y="117" type="curve" smooth="yes"/>
      <point x="1610" y="241" type="line"/>
      <point x="1672" y="241" type="line"/>
      <point x="1672" y="264" type="line"/>
      <point x="1636" y="264" type="line" smooth="yes"/>
      <point x="1605" y="264"/>
      <point x="1556" y="271"/>
      <point x="1504" y="285" type="curve" smooth="yes"/>
      <point x="1188" y="369" type="line" smooth="yes"/>
      <point x="1167" y="375"/>
      <point x="1160" y="375"/>
      <point x="1156" y="375" type="curve" smooth="yes"/>
      <point x="1141" y="375"/>
      <point x="1132" y="364"/>
      <point x="1132" y="346" type="curve" smooth="yes"/>
      <point x="1132" y="269" type="line"/>
      <point x="1151" y="269" type="line"/>
      <point x="1151" y="355" type="line"/>
      <point x="1449" y="276" type="line"/>
      <point x="1578" y="244" type="line"/>
      <point x="1578" y="241" type="line"/>
      <point x="1416" y="134" type="line" smooth="yes"/>
      <point x="1278" y="43"/>
      <point x="1225" y="23"/>
      <point x="1112" y="23" type="curve" smooth="yes"/>
      <point x="1102" y="23" type="line" smooth="yes"/>
      <point x="1020" y="23"/>
      <point x="982" y="65"/>
      <point x="982" y="156" type="curve" smooth="yes"/>
      <point x="982" y="740" type="line"/>
      <point x="962" y="740" type="line"/>
      <point x="962" y="226" type="line" smooth="yes"/>
      <point x="962" y="154"/>
      <point x="937" y="98"/>
      <point x="812" y="56" type="curve"/>
      <point x="721" y="565" type="line"/>
      <point x="703" y="562" type="line"/>
      <point x="795" y="50" type="line"/>
      <point x="787" y="47"/>
      <point x="778" y="45"/>
      <point x="769" y="43" type="curve" smooth="yes"/>
      <point x="615" y="1" type="line"/>
      <point x="621" y="-21" type="line"/>
      <point x="775" y="21" type="line" smooth="yes"/>
      <point x="917" y="60"/>
      <point x="950" y="111"/>
      <point x="962" y="159" type="curve"/>
      <point x="965" y="159" type="line"/>
      <point x="965" y="156" type="line" smooth="yes"/>
      <point x="965" y="49"/>
      <point x="1008" y="0"/>
      <point x="1102" y="0" type="curve" smooth="yes"/>
      <point x="1112" y="0" type="line" smooth="yes"/>
      <point x="1180" y="0"/>
      <point x="1228" y="7"/>
      <point x="1285" y="33" type="curve"/>
      <point x="1285" y="10" type="line" smooth="yes"/>
      <point x="1285" y="-147"/>
      <point x="1377" y="-240"/>
    </contour>
    <contour>
      <point x="422" y="0" type="curve" smooth="yes"/>
      <point x="520" y="0"/>
      <point x="570" y="49"/>
      <point x="570" y="155" type="curve" smooth="yes"/>
      <point x="570" y="740" type="line"/>
      <point x="551" y="740" type="line"/>
      <point x="551" y="155" type="line" smooth="yes"/>
      <point x="551" y="64"/>
      <point x="512" y="23"/>
      <point x="437" y="23" type="curve" smooth="yes"/>
      <point x="407" y="23" type="line" smooth="yes"/>
      <point x="334" y="23"/>
      <point x="292" y="55"/>
      <point x="292" y="146" type="curve" smooth="yes"/>
      <point x="292" y="516" type="line"/>
      <point x="272" y="516" type="line"/>
      <point x="272" y="437" type="line"/>
      <point x="168" y="376" type="line" smooth="yes"/>
      <point x="67" y="316"/>
      <point x="30" y="283"/>
      <point x="30" y="211" type="curve" smooth="yes"/>
      <point x="30" y="139"/>
      <point x="74" y="97"/>
      <point x="149" y="97" type="curve" smooth="yes"/>
      <point x="212" y="97"/>
      <point x="257" y="123"/>
      <point x="271" y="169" type="curve"/>
      <point x="274" y="169" type="line"/>
      <point x="274" y="146" type="line" smooth="yes"/>
      <point x="274" y="38"/>
      <point x="313" y="0"/>
    </contour>
    <contour>
      <point x="146" y="120" type="curve" smooth="yes"/>
      <point x="85" y="120"/>
      <point x="49" y="154"/>
      <point x="49" y="211" type="curve" smooth="yes"/>
      <point x="49" y="276"/>
      <point x="87" y="309"/>
      <point x="190" y="368" type="curve" smooth="yes"/>
      <point x="272" y="414" type="line"/>
      <point x="272" y="239" type="line" smooth="yes"/>
      <point x="272" y="157"/>
      <point x="232" y="120"/>
    </contour>
    <contour>
      <point x="139" y="544" type="line"/>
      <point x="271" y="605" type="line" smooth="yes"/>
      <point x="321" y="628"/>
      <point x="344" y="656"/>
      <point x="344" y="694" type="curve" smooth="yes"/>
      <point x="344" y="735"/>
      <point x="314" y="765"/>
      <point x="275" y="765" type="curve" smooth="yes"/>
      <point x="236" y="765"/>
      <point x="206" y="734"/>
      <point x="206" y="691" type="curve" smooth="yes"/>
      <point x="206" y="661"/>
      <point x="224" y="636"/>
      <point x="254" y="621" type="curve"/>
      <point x="254" y="618" type="line"/>
      <point x="131" y="562" type="line"/>
    </contour>
    <contour>
      <point x="1131" y="503" type="line"/>
      <point x="1664" y="747" type="line"/>
      <point x="1656" y="765" type="line"/>
      <point x="1123" y="521" type="line"/>
    </contour>
    <contour>
      <point x="224" y="691" type="curve" smooth="yes"/>
      <point x="224" y="722"/>
      <point x="246" y="745"/>
      <point x="275" y="745" type="curve" smooth="yes"/>
      <point x="304" y="745"/>
      <point x="326" y="723"/>
      <point x="326" y="694" type="curve" smooth="yes"/>
      <point x="326" y="665"/>
      <point x="309" y="645"/>
      <point x="274" y="628" type="curve"/>
      <point x="264" y="633" type="line" smooth="yes"/>
      <point x="239" y="646"/>
      <point x="224" y="668"/>
    </contour>
    <contour>
      <point x="1505" y="428" type="curve" smooth="yes"/>
      <point x="1542" y="428"/>
      <point x="1563" y="455"/>
      <point x="1564" y="499" type="curve"/>
      <point x="1566" y="499" type="line"/>
      <point x="1571" y="475"/>
      <point x="1589" y="458"/>
      <point x="1616" y="458" type="curve" smooth="yes"/>
      <point x="1656" y="458"/>
      <point x="1675" y="482"/>
      <point x="1675" y="531" type="curve" smooth="yes"/>
      <point x="1675" y="550"/>
      <point x="1670" y="574"/>
      <point x="1663" y="594" type="curve"/>
      <point x="1645" y="588" type="line"/>
      <point x="1652" y="570"/>
      <point x="1657" y="548"/>
      <point x="1657" y="528" type="curve" smooth="yes"/>
      <point x="1657" y="494"/>
      <point x="1644" y="478"/>
      <point x="1617" y="478" type="curve" smooth="yes"/>
      <point x="1588" y="478"/>
      <point x="1573" y="501"/>
      <point x="1573" y="537" type="curve" smooth="yes"/>
      <point x="1573" y="564" type="line"/>
      <point x="1555" y="564" type="line"/>
      <point x="1555" y="512" type="line" smooth="yes"/>
      <point x="1555" y="472"/>
      <point x="1538" y="448"/>
      <point x="1508" y="448" type="curve" smooth="yes"/>
      <point x="1485" y="448"/>
      <point x="1471" y="465"/>
      <point x="1471" y="493" type="curve" smooth="yes"/>
      <point x="1471" y="537" type="line"/>
      <point x="1453" y="537" type="line"/>
      <point x="1453" y="493" type="line" smooth="yes"/>
      <point x="1453" y="452"/>
      <point x="1472" y="428"/>
    </contour>
    <contour>
      <point x="1139" y="-201" type="curve"/>
      <point x="1143" y="-201" type="line" smooth="yes"/>
      <point x="1155" y="-201"/>
      <point x="1164" y="-194"/>
      <point x="1164" y="-179" type="curve" smooth="yes"/>
      <point x="1164" y="-164"/>
      <point x="1155" y="-157"/>
      <point x="1143" y="-157" type="curve" smooth="yes"/>
      <point x="1139" y="-157" type="line" smooth="yes"/>
      <point x="1127" y="-157"/>
      <point x="1118" y="-164"/>
      <point x="1118" y="-179" type="curve" smooth="yes"/>
      <point x="1118" y="-194"/>
      <point x="1127" y="-201"/>
    </contour>
    <contour>
      <point x="2177" y="-201" type="curve"/>
      <point x="2181" y="-201" type="line" smooth="yes"/>
      <point x="2193" y="-201"/>
      <point x="2202" y="-194"/>
      <point x="2202" y="-179" type="curve" smooth="yes"/>
      <point x="2202" y="-164"/>
      <point x="2193" y="-157"/>
      <point x="2181" y="-157" type="curve" smooth="yes"/>
      <point x="2177" y="-157" type="line" smooth="yes"/>
      <point x="2165" y="-157"/>
      <point x="2156" y="-164"/>
      <point x="2156" y="-179" type="curve" smooth="yes"/>
      <point x="2156" y="-194"/>
      <point x="2165" y="-201"/>
    </contour>
  </outline>
</glyph>
